<?xml version="1.0" standalone="no"?>
<!DOCTYPE svg PUBLIC "-//W3C//DTD SVG 1.1//EN" "http://www.w3.org/Graphics/SVG/1.1/DTD/svg11.dtd" >
<svg xmlns="http://www.w3.org/2000/svg" xmlns:xlink="http://www.w3.org/1999/xlink" version="1.1">
<metadata></metadata>
<defs>
<font id="gilded_handregular" horiz-adv-x="907" >
<font-face units-per-em="2048" ascent="1536" descent="-512" />
<missing-glyph horiz-adv-x="641" />
<glyph horiz-adv-x="0" />
<glyph horiz-adv-x="682" />
<glyph unicode=" "  horiz-adv-x="641" />
<glyph unicode="&#x09;" horiz-adv-x="641" />
<glyph unicode="&#xa0;" horiz-adv-x="641" />
<glyph unicode="!" horiz-adv-x="780" d="M0 39q10 -3 10 -19q21 -16 49 -16q40 0 66 33q22 25 22 61q0 33 -18 56q-18 6 -35 6q-34 0 -59 -25q-35 -35 -35 -96zM160 322q0 -11 2 -17q15 -6 26 -6q9 0 13 2q34 12 63 49q16 20 25 29q57 57 100 119q110 162 232 295q82 92 139 165q23 17 26 19q19 9 25 14 q30 18 27 58q-11 26 -39 26q-9 0 -15 -2q-77 -74 -129 -133q-32 -40 -51 -59q-11 -11 -30 -33t-21 -25q-57 -63 -96 -131q-43 -70 -90 -129q-24 -31 -60 -59q-14 -11 -61 -58q-5 -5 -15.5 -14t-15.5 -14q-13 -13 -29 -33q-26 -33 -26 -63z" />
<glyph unicode="," horiz-adv-x="339" d="M0 -154q12 -6 27 -6q14 0 53 13q21 7 80 45q86 54 114 84q43 43 43 118v11q-21 36 -63 36q-27 0 -53 -16q-45 -27 -45 -82q0 -27 10 -47q-15 -25 -43 -37q-9 -4 -27.5 -12t-27.5 -12q-68 -33 -68 -95z" />
<glyph unicode="." horiz-adv-x="319" d="M66 59q0 -33 30 -57q144 0 144 119q0 21 -2 31q-22 22 -56 22q-51 0 -84 -41q-32 -36 -32 -74z" />
<glyph unicode="0" horiz-adv-x="800" d="M0 141q0 -25 8 -71q68 -68 164 -68q51 0 94 14q104 29 232 123q104 74 198 183q61 73 160 210q71 99 107 168q54 100 57 174q0 4 1 13t1 14q0 85 -45 143q-40 46 -86 46q-18 0 -39 -9q-173 -67 -365 -215q-182 -143 -299 -291q-88 -113 -141 -233q-47 -107 -47 -201z M94 129q3 124 88 264q54 92 178 234q91 101 244 213q164 120 299 157q29 -45 29 -98q0 -24 -12 -74q-17 -59 -78 -157q-57 -92 -92 -138q-72 -97 -150 -178q-80 -83 -190 -157q-96 -70 -150 -89q-44 -14 -72 -14q-52 0 -94 37z" />
<glyph unicode="1" horiz-adv-x="505" d="M0 33q0 -15 6 -33h12q31 0 52 16q43 31 84 107q9 19 32 55q117 173 328 443q38 48 80 114q38 59 78 111q19 22 47 47q37 32 53 51q31 34 31 68q0 27 -21 57q-25 -9 -75 -39q-61 -42 -125 -106q-40 -36 -66 -54q-47 -36 -113 -79q-16 -10 -32 -15q-5 -2 -17 -7.5t-18 -8.5 q-29 -16 -29 -47q0 -13 2 -21q13 -10 29 -10h10q21 3 78 23q12 4 14 4q9 0 13 -4q-25 -36 -183 -254q-80 -107 -180 -254q-11 -15 -33 -41q-10 -11 -32 -47q-25 -48 -25 -76z" />
<glyph unicode="2" horiz-adv-x="808" d="M-96 37q0 -13 6 -25q19 -16 37 -16q26 0 82 27q21 9 43 12q52 2 147 -25q108 -35 154 -37q100 -4 164.5 28.5t121.5 94.5q17 17 27 25q18 18 23 26q12 15 12 37q0 14 -6 29q-10 4 -31 4q-17 0 -25 -4q-37 -16 -88 -74q-25 -25 -47 -37q-57 -28 -125 -28q-106 0 -233 69 q78 61 149 111q75 50 166 115q236 163 322 231q38 32 86 68q58 43 86 71q90 87 98 176q0 4 1 13.5t1 13.5q0 90 -67 131q-50 29 -115 29q-24 0 -74 -8q-68 -13 -143 -56q-84 -48 -141 -96q-82 -67 -123 -129q-37 -53 -37 -96q0 -24 10 -39q22 0 35 8q25 14 49 53q7 12 20 29 q22 28 64 70q71 68 164 120q87 50 170 50q25 0 37 -2q32 -6 47.5 -27t15.5 -49q0 -34 -20 -64q-45 -65 -146 -137q-30 -21 -69 -51q-100 -84 -187 -143q-150 -108 -372 -256q-100 -67 -181 -129q-6 -4 -20 -13.5t-19 -13.5q-28 -20 -39 -31q-30 -27 -30 -55z" />
<glyph unicode="3" d="M0 84q0 -68 43 -111q43 -14 90 -14q54 0 107 16q77 23 168 84q64 41 93.5 60t78 55.5t82.5 69.5q123 120 159 260q-6 33 -24 51q-21 18 -27 53q43 27 113 68q62 38 102 76q104 98 94 258q-50 73 -155 73q-4 0 -13.5 -1t-13.5 -1q-111 -9 -240 -80q-123 -66 -165 -143 q-15 -27 -15 -49q0 -50 60 -72q22 2 26 43q0 38 10 56q30 17 89 59q59 41 104 63q68 33 123 33q56 0 96 -30q-2 -35 -14 -70q-23 -52 -74 -88q-5 -4 -24 -17.5t-29 -21.5q-145 -102 -256 -150q-17 -7 -39 -10q-31 -9 -43 -14q-43 -15 -43 -53q0 -2 1 -6.5t1 -6.5 q13 -30 70 -30q19 0 51 4q54 4 76 4q38 0 53 -21q-48 -104 -141 -192t-207 -154q-54 -30 -60 -33q-67 -36 -135 -36q-34 0 -74 16q-2 6 -2 16q0 15 7 28t13 18.5t19 15.5q2 1 8.5 5.5t8.5 6t7.5 6t7.5 7.5t6 8t5 9.5t2.5 11t1.5 13.5q-30 15 -57 15q-34 0 -62.5 -21 t-44.5 -55q-18 -38 -18 -82z" />
<glyph unicode="4" horiz-adv-x="894" d="M2 215q0 -25 31 -41q33 12 86 43q58 34 94 49q62 25 106 25q57 0 107 -31q-8 -23 -24.5 -45.5t-29.5 -35t-38 -34.5q-69 -61 -76 -131q24 -18 43 -18h6q37 5 78 59q15 21 35 41q13 15 38 43t36 41q39 45 88 56q2 0 7.5 1t8.5 1q6 0 31 -5q21 -6 39 -6h10q66 3 108 31 q35 21 35 72q0 16 -2 26q-15 9 -31 9q-21 0 -69 -21q-46 -20 -68 -20q-19 0 -35 8q11 35 39 63q42 42 50 51q61 65 61 140q-6 2 -21 2q-34 0 -61.5 -25.5t-60.5 -73.5q-8 -11 -23 -33.5t-24.5 -35t-22.5 -27.5t-26 -23.5t-27 -11.5q-6 -2 -17 -2q-22 0 -65 15q-16 4 -92 32 q116 110 235 248q110 128 236 244q21 18 45 39q16 12 45 41q35 40 35 80q0 10 -4 26h-9q-9 0 -12 6q-3 5 -10 5q-11 0 -17 -2q0 -11 -8 -11q-9 0 -12 -8q-80 -77 -166 -172q-109 -120 -176 -192q-237 -253 -373 -357q-5 -3 -22.5 -16t-28.5 -21q-30 -18 -55 -47 q-27 -27 -27 -51z" />
<glyph unicode="5" horiz-adv-x="991" d="M-27 129q3 -12 21 -33q32 -37 98 -78q44 -24 90 -24q19 0 29 2q59 9 108 43q3 2 22 14.5t30 18.5q80 51 110 71q89 61 181 156q88 88 149 186q69 106 86 193q4 28 4 41q0 75 -53 92q-27 8 -68 8q-42 0 -100 -10q-52 -10 -86 -10q49 92 78 124q24 28 53 44q54 -13 117 -13 q96 0 188 25q81 22 134 58.5t59 84.5q-15 3 -19 15q-3 6 -14 6q-10 0 -14 -2q-89 -70 -238 -92q-54 -7 -90 -7q-109 0 -172 39q-76 -91 -144 -190q-67 -97 -137 -193q-9 -15 -24 -30q-21 -25 -27 -37q-12 -24 -12 -37q0 -20 18 -41q8 -4 23 -4q12 0 18 2q25 8 74 47 q19 16 37 25q96 61 143 77q49 17 92 17q37 0 62 -10q-23 -163 -162 -316q-121 -133 -289 -225q-23 -11 -80 -43q-43 -22 -71 -27q-8 -2 -23 -2q-58 0 -104 66q0 34 18 49q24 21 94 35q26 3 49 16q-25 76 -79 76q-32 0 -78 -31q-41 -29 -71 -77.5t-30 -86.5v-12z" />
<glyph unicode="6" d="M-18 184q37 -48 54 -68.5t47 -49.5t59 -42t65 -18q10 -2 33 -2q112 0 231 82q127 86 217 227q78 121 78 228q0 5 -1 13.5t-1 12.5q-16 115 -143 115q-5 0 -16.5 -1t-16.5 -1q-59 -8 -125 -47q-73 -43 -96 -45q143 224 483 405q9 5 27 15.5t24 13.5q24 15 51 27t54 12 q30 0 55 -14q0 -25 -12 -43q-15 -21 -27 -39q-23 -31 -23 -54q0 -5 9 -28q70 3 112 82q19 40 19 77q0 35 -13 64q-45 37 -112 37q-29 0 -56 -6q-61 -13 -139 -58q-277 -162 -491 -389q-226 -244 -346 -506zM117 209q0 27 16 51q31 45 127 111q29 19 72 53q41 31 86 72 q41 35 80 61q58 39 114 39q26 0 64 -10q11 -194 -137 -342q-55 -55 -136 -101q-86 -49 -139 -49q-22 0 -49 10q-55 20 -82 58q-16 19 -16 47z" />
<glyph unicode="7" horiz-adv-x="821" d="M-104 -141q0 -14 6 -29q16 -4 24 -4q13 0 33 8q38 19 80 82q9 14 33 43q14 15 39.5 45t38.5 45q39 44 81 78q108 130 373 442q196 231 389 424q20 28 37 45q7 7 20.5 21.5t20.5 21.5q45 56 43 99q-27 10 -49 10q-17 0 -45 -8q-63 -25 -195 -103q-58 -30 -104 -35 q-8 -2 -25 -2q-30 0 -73 17q-54 20 -84 20q-70 -3 -129 -47q-67 -50 -70 -112q21 -7 37 -7q27 0 69 29q3 2 13 9.5l14 10.5t13 9t14.5 8.5t14 6t17 5.5t17.5 2q49 -37 137 -37q77 0 154 25q-121 -156 -236 -285q-99 -109 -244 -286q-73 -88 -188 -209q-111 -111 -188 -205 q-16 -20 -31 -35q-18 -18 -33 -39q-24 -36 -24 -63z" />
<glyph unicode="8" horiz-adv-x="894" d="M2 162q0 -21 2 -31q14 -98 164 -127q36 -8 84 -8q89 0 158 29q108 46 172 153q53 83 53 180q0 27 -2 39q-3 20 -12 41q-3 7 -9 22t-8 19q-22 64 -22 101q9 6 19.5 12.5t19 11t22.5 10t21.5 8.5t23.5 8.5t22 7.5t24.5 8t23.5 7q118 37 166 107q45 62 45 137q0 35 -13 76 q-19 50 -59 84.5t-96 46.5h-4q-10 0 -25 -6q-4 -2 -14 -6t-18.5 -7.5t-16.5 -7.5q-64 -29 -86 -45q-84 -60 -137 -172q-41 -84 -41 -172q0 -17 4 -45q-15 -13 -31.5 -26t-40.5 -27.5t-36.5 -22t-45 -26t-41.5 -23.5q-133 -76 -184 -143q-35 -41 -61 -111q-21 -58 -21 -102z M98 143q6 94 45 150q65 105 213 178q60 28 129 68q29 -29 52 -99q20 -65 20 -112v-11q-6 -67 -55.5 -124t-122.5 -87q-59 -24 -121 -24q-99 0 -160 61zM539 713q0 95 73 184q34 43 90 82q62 41 97 41q2 0 6 -1t6 -1q59 -12 70 -94q0 -4 1 -12t1 -11q0 -68 -37 -115 q-25 -28 -62 -43q-68 -24 -168 -38q-36 -7 -75 -21q-2 10 -2 29z" />
<glyph unicode="9" horiz-adv-x="995" d="M2 98q0 -65 53 -94t125 -29q26 0 70 7q104 17 192 88q82 64 170 161q80 86 174 170q39 39 86 93q102 121 164 235q72 133 72 232q0 25 -6 49q-2 2 -8.5 6.5t-13.5 9.5t-13 10q-22 14 -53 31q-52 23 -80 23q-20 0 -35 -9q-76 -40 -138.5 -89.5t-146.5 -129.5 q-103 -93 -112 -100q-50 -45 -76 -78q-58 -75 -66 -147q-2 -10 -2 -31q0 -63 45 -100q42 -11 68 -11h14q57 2 148 33q63 22 67 23q-16 -33 -51 -73.5t-59.5 -63.5t-77.5 -70q-148 -136 -236 -170q-66 -21 -92 -21h-12q-50 0 -80 35v8q0 32 49 58q33 18 33 39q0 11 -8 24 q-21 12 -47 12q-11 0 -17 -2q-66 -15 -92 -88q-8 -24 -8 -41zM449 492q0 64 61 153q43 63 125 141q183 167 266 209q12 6 27 6q26 0 53.5 -11.5t44.5 -31.5v-24q0 -36 -6 -60q-15 -60 -64 -124q-14 -18 -38 -54q-22 -9 -29 -14q-9 -6 -27 -6h-12q-65 -88 -162 -139 q-91 -48 -192 -48q-23 0 -47 3z" />
<glyph unicode="?" horiz-adv-x="778" d="M6 51q0 -12 2 -18q11 -35 43 -35q21 0 47 16q28 17 53 46t35 57q7 18 7 28q0 37 -58 37q-50 0 -94 -51q-35 -35 -35 -80zM236 289q0 -23 18 -41q32 14 55 37q28 28 82 106q40 62 121 125q98 72 154 119q59 50 127 147q63 92 63 195q0 53 -33 100q-50 17 -90 17 q-53 0 -110 -31q-51 -32 -142 -131q-79 -79 -108 -125q-27 -42 -27 -76q0 -26 19 -51q34 -21 69 -21q39 0 80 23q34 19 54 48t20 58q-8 5 -19 5q-5 0 -9.5 -1t-9 -3t-7.5 -3.5t-8.5 -6t-7.5 -6t-8 -7t-7 -6.5q-37 -29 -57 -29q-12 0 -27 6q0 40 27 70q20 22 51 61q4 5 19 23 t22 25.5t19.5 21t24 23.5t23.5 18q53 37 115 37q13 0 41 -4q4 -32 4 -49q0 -88 -51 -162q-39 -55 -148 -150q-106 -90 -159 -133q-82 -67 -142 -147q-9 -12 -18 -27q-11 -18 -16 -31q-4 -8 -4 -24z" />
<glyph unicode="A" horiz-adv-x="1472" d="M23 195q0 -44 30 -68q32 -28 35 -31q60 -49 127 -49q33 0 57 8q60 16 168 86q17 9 41 29q59 44 88 61q26 15 41 15q22 0 43 -21q46 -46 146 -53q42 -3 78 -31q-3 -23 -11 -41q-4 -10 -14 -39q-4 -16 -4 -24q0 -24 22 -41h11q34 0 53 16q5 4 9 8.5t8 10t7 9.5t6.5 11.5 t5.5 11t5 12t4.5 11.5t5 13t4.5 12q9 27 31 43q116 23 178 47q111 43 156 88q16 16 38 54.5t33 76.5q9 36 9 51q0 60 -60 82q-28 -28 -28 -70q-4 -48 -15 -77q-34 -70 -106 -105q-72 -34 -152 -37q31 91 86 164q131 174 205 307q55 97 102 154q186 238 344 426q12 15 33 33 q23 19 35 36q20 23 20 54q0 18 -10 41q-17 0 -28 8q-150 -56 -256 -127q-190 -123 -408 -352q-63 -66 -190 -193q-33 29 -43 59q-9 27 -33 58q-73 85 -197 112q-35 7 -59 7q-89 0 -154 -47q-44 -38 -78 -95q-32 -58 -43 -116q-4 -20 -4 -62q0 -81 35 -188q27 -81 98 -228 q-75 -69 -137 -114q-103 -74 -163 -74h-5q-51 1 -75 31q-22 27 -21 64v7q0 38 23 74t59 49q15 6 35 6q10 -2 35 -2q3 0 10 -1t10 -1q29 0 45 21q-10 46 -59 59q-21 6 -41 6q-27 0 -45 -6q-27 -5 -66 -35q-68 -59 -100 -147q-10 -25 -10 -57zM483 729q0 31 6 66 q12 64 48.5 104.5t89.5 56.5q27 9 57 9q78 0 147 -54q11 -8 25 -24q35 -38 59 -96q11 -33 11 -52q0 -31 -19 -59q-33 -44 -88 -92q-25 -20 -43 -41q-28 -32 -43 -49q-11 -15 -37 -45q-46 -46 -98 -64q-58 100 -88 189q-27 79 -27 151zM682 309q21 36 55 78q27 31 129 133 q32 27 64 68q17 -40 20 -80v-29q0 -53 -16 -155q-1 -4 -14 -80q-6 0 -17 -1t-16 -1q-109 0 -205 67zM1024 645q0 35 18 62q14 24 70 88q15 15 39 43q162 185 272 286q107 102 234 168q8 0 8 -8q0 -1 -1 -4t-1 -4q0 -2 1 -5t1 -5q-117 -130 -229 -283.5t-244 -353.5 q-11 -17 -34.5 -52t-35.5 -53q-37 -56 -80 -88q5 30 5 39q0 33 -11 82q-7 33 -10 57q-2 10 -2 31z" />
<glyph unicode="B" horiz-adv-x="1810" d="M29 211q8 -97 118 -145q102 -45 222 -48q12 -1 23 -1q41 1 81 9q51 10 74 19t82 35q127 55 245 149q212 175 383 416q96 133 160 223q27 19 56.5 45.5t46.5 43t53 53t47 47.5q109 114 225 166q33 -51 33 -150q0 -41 -6 -76q-7 -36 -19 -55t-36 -37q-42 -34 -107 -57 q-76 -31 -127 -31q-13 -1 -76 -6q-42 -7 -69.5 -20t-44.5 -41q4 -6 9 -11.5t12 -10t12 -7.5t15 -6t14 -4.5t17 -4t16 -3t17.5 -3t16.5 -2.5q49 -8 78 -20t40 -41q7 -40 7 -70q0 -89 -35 -176q-46 -121 -142 -211q-52 -49 -137 -80q-79 -28 -131 -28q-18 0 -28 2 q-74 11 -74 69q0 13 2 19q10 65 76 125q60 53 106 53h10q17 -2 27 -41q8 -33 29 -33q2 0 5 1t5 1q43 21 43 60q0 18 -8 34q-11 21 -31 37.5t-35 22.5q-12 4 -39 4q-99 0 -180 -88q-42 -44 -68 -97.5t-26 -99.5q0 -3 1 -9t1 -9q5 -55 47.5 -90t128.5 -39q10 -1 21 -1 q150 0 284 109q119 98 184 246q58 132 58 223q0 89 -49 177q78 18 139.5 69.5t97.5 126.5q37 73 37 164q0 94 -41 180q1 5 2.5 9t3.5 7t5.5 6.5t6 5.5t7 4.5t7 4t8.5 3.5t8.5 3t9 3t8.5 3q25 7 37.5 20.5t11.5 41.5q-22 16 -41 16h-6q-27 -3 -92 -41q-19 -12 -50 -16 q-69 66 -155 102q-82 33 -203 45q-49 6 -94 6q-111 0 -277 -43q-180 -47 -326.5 -138t-234.5 -210q-20 -25 -82 -133q-53 -92 -67 -133q-9 -38 -9 -74q0 -69 31 -123q48 -82 131 -108q43 -14 88 -14q52 0 107 20q50 20 155 94q161 113 267 242q40 50 61 82q57 83 57 166 q0 45 -18 98q-44 33 -100 33h-19q-73 -9 -168 -94q-88 -81 -88 -140v-8q7 -3 17 -0.5t16 2t15.5 5t14.5 7.5t14 9l13.5 10.5t13 11.5t13 12.5t12.5 13t13 13.5q21 21 34.5 32.5t37 22.5t48.5 11q15 0 43 -7q7 -25 7 -43v-14q-9 -40 -52 -94q-6 -8 -17 -22t-15 -19 q-54 -70 -88.5 -110t-89 -89.5t-115.5 -87.5q-37 -24 -127 -53q-37 -12 -78 -12q-81 0 -127 57q-25 31 -25 76q0 69 54 168q63 118 131 192q43 46 159 133q100 76 152 95q88 33 204.5 54t229.5 21q270 -4 357 -131q-50 -50 -109 -94q-59 -47 -115 -100q-62 -62 -106 -97 q-55 -47 -107 -108q-29 -38 -39 -57q-12 -27 -39 -62q-207 -267 -335 -391q-210 -203 -447 -270q-42 -11 -80 -11q-53 0 -139 19q-60 14 -98 40q-40 27 -39 62q-1 29 27 69q28 41 71 73q49 34 84 34t49 -37q4 -8 4 -14q0 -2 -4 -14q-8 -14 -12 -33q-4 -16 -4 -22 q0 -26 28 -41q2 0 6 -1t5 -1q32 0 55 38q14 23 14 70v21q-9 51 -61 90q-50 32 -112 32h-11q-84 -9 -158 -100q-71 -88 -71 -162v-14z" />
<glyph unicode="C" horiz-adv-x="1136" d="M37 1036q0 -59 35 -141q37 -88 104 -135q9 -7 18 -11.5t19 -8.5t16 -6t18 -5t17 -4q52 -14 92 -45q-10 -24 -41 -84q-28 -50 -45 -86q-48 -104 -55 -188q-4 -50 -4 -76q0 -79 27 -129q22 -45 96 -74q68 -30 112 -33q27 -6 66 -6q40 0 84 8q65 10 148 51t159 99 q177 131 197 235q4 32 4 49q0 63 -29 113q-41 62 -102 78q-31 8 -68 8q-108 0 -198 -70q-48 -36 -76.5 -83t-28.5 -93q0 -12 4 -32q11 -42 62 -64q16 -8 37 -8q38 0 69 31q1 16 -4.5 26t-12 14t-18.5 9q-30 9 -36 20q-5 8 -5 21q2 19 27 51q52 59 131 82q32 8 53 8 q81 0 101 -47q10 -23 10 -49q0 -49 -33 -107q-24 -41 -50.5 -69.5t-72.5 -59.5q-98 -67 -196 -104q-82 -29 -138 -29q-24 0 -36 2q-92 9 -146 51q-42 32 -45 95v20q0 44 10 102q9 58 39 123q44 93 88 148q36 45 72 45q7 0 27 -4q28 -8 43 -8h8q79 3 153 28q136 49 213 60 q36 3 78 16q109 35 240 115q131 77 194 137q23 23 37 39q50 57 72 108q18 45 18 93q0 32 -12 67q-39 86 -125 107q-24 6 -53 6q-81 0 -168 -51q-180 -102 -276 -150q-67 -34 -121 -76q-131 -94 -219 -182q-34 -34 -46 -51q-15 -21 -49 -64q-61 -76 -106 -86q-10 -2 -29 -2 q-72 0 -147 56q-42 30 -72 69t-37 76q-6 30 -6 61q0 76 35 138q40 74 121 141q84 69 180 92q31 8 65 8q77 0 136 -45q6 -12 6 -26q0 -15 -13 -54q-8 -24 -8 -39q0 -22 19 -38q40 14 63 47t23 80q0 24 -6 51q-16 59 -74 85q-49 22 -114 22q-12 0 -25 -1q-74 -4 -151 -27 t-122 -53q-79 -50 -143 -153q-73 -113 -82 -207q0 -4 -1 -13t-1 -14zM569 768q26 50 64 96.5t90 92t94 77.5t107 78q86 64 221 135q12 7 35 20t36.5 20.5t33 17t36.5 16.5q81 34 164 37q55 -24 61 -66q0 -3 1 -9t1 -9q0 -71 -73 -154q-34 -39 -61.5 -60t-78.5 -52 q-16 -9 -46.5 -29t-45.5 -29q-102 -63 -297 -119q-176 -50 -342 -63z" />
<glyph unicode="D" horiz-adv-x="1667" d="M81 -20q38 -35 75 -41q35 -5 43 -5q84 0 223 62q63 26 125 55q64 25 102 25q41 0 82 -23q48 -27 74 -33q79 -18 156 -18q119 0 237 43q168 59 289 193q138 155 203 354.5t65 472.5q5 14 13.5 25.5t23 22t23 16t29 16.5t26.5 14q42 22 65.5 46t24.5 67q-26 16 -49 16 q-3 0 -8 -1t-7 -1q-14 -4 -30 -11.5t-24.5 -13t-29.5 -20t-26 -18.5q-28 -22 -62 -25q-2 2 -75 86q-39 45 -84 84q-109 87 -230 98q-75 7 -125 7q-155 0 -303 -41q-168 -48 -303 -144q-133 -94 -188 -168q-80 -106 -80 -200q0 -114 100 -220q97 -108 236 -108q75 0 157 33 q72 26 185 106q104 74 143 129q38 52 66 127q24 71 24 115v10q-11 101 -112 115q-3 0 -11 1t-12 1q-82 0 -158 -49q-80 -53 -80 -119q0 -2 1.5 -7t1.5 -7q2 0 6 -1.5t6 -1.5q25 0 53 19q12 7 34.5 21.5t33.5 21.5q49 29 82 29t61 -25q0 -116 -76 -195q-58 -63 -166 -127 q-45 -27 -63 -40q-43 -26 -68 -37q-62 -27 -127 -27q-29 0 -45 2q-47 36 -61 45q-33 20 -60 47q-67 63 -67 133q0 94 141 232q144 137 309 188q155 49 310 49q81 0 163 -16q114 -26 192.5 -85t102.5 -149q-40 -50 -131 -149q-97 -103 -301 -303q-182 -178 -243 -250 q-43 -51 -99 -100q-15 -15 -51 -43q-70 -57 -121 -80q-34 -17 -61 -17q-28 0 -58 15q-23 10 -69 22q-89 19 -164 19q-38 0 -76 -6q-67 -13 -145 -68q-80 -60 -80 -115q0 -36 42 -75zM154 45q7 37 43 62t88 34q35 6 69 6q70 0 123 -18q-50 -44 -147 -68q-64 -18 -133 -18 q-29 0 -43 2zM774 125q13 29 33 49q33 36 88 74q23 14 47 35q46 40 86 86q30 34 82 90q144 148 268 256q134 120 264 272h5q11 0 14 -10q0 -218 -88 -430q-93 -220 -256 -342q-110 -82 -244 -107q-58 -10 -108 -10q-105 0 -191 37z" />
<glyph unicode="E" horiz-adv-x="964" d="M51 268q0 -3 1 -9t1 -9q3 -53 47 -115q38 -58 76 -82q75 -55 203 -55q80 0 166 22q99 25 181 72.5t118 102.5q32 58 43 124q2 14 2 41q0 56 -17 91q-47 92 -178 92q-29 0 -43 -2q-66 -7 -125 -34.5t-80 -57.5q-22 -36 -30 -68q-2 -6 -2 -19q0 -37 28 -59q30 3 43 14 q18 18 41 70q9 21 31 37q48 39 127 39h14q84 -7 105 -70q4 -20 4 -28q0 -38 -29 -91q-38 -64 -80 -92q-56 -39 -142 -63q-82 -23 -162 -23h-7q-92 2 -154.5 35t-78.5 102q-4 14 -4 43q0 67 40 136q43 72 119 133q144 121 359 121q37 0 55 -2q2 0 37 -5q28 -4 39 -4h10 q39 0 49 21q6 12 6 24q0 23 -37 56q-34 30 -38 45q-1 4 -1 8q0 13 5 20q180 1 318 57.5t257 153.5q4 3 23 18t26 21t21.5 18t25 23t19.5 23q43 53 43 119q0 18 -2 28q-11 77 -101 121q-71 35 -166 35q-178 -3 -368 -143q-82 -61 -142.5 -136t-84.5 -143q-13 -37 -13 -63 q-4 -36 -22 -54q-12 -1 -23 -1q-93 0 -170 65q-79 64 -92 155q0 3 -1 10.5t-1 10.5q0 82 66 168q65 82 133 82q14 0 22 -2q21 -6 31 -23q12 -29 14 -33q15 -43 66 -43q12 38 12 64q0 31 -14 51q-43 64 -138 64q-8 0 -43 -5q-52 -8 -81 -26.5t-58 -52.5q-51 -60 -82 -140 q-20 -52 -20 -100q0 -37 12 -78q35 -103 109 -174q67 -64 143 -72q42 -3 82 -12q6 -2 24 -2q21 0 31 -2q35 -3 35 -39q-329 -38 -494 -211q-56 -59 -96 -141q-43 -95 -43 -152zM735 928q7 73 52.5 150.5t113.5 133.5q65 52 160 99q87 43 172 53h33q50 0 84 -10 q61 -19 94 -66q-11 -92 -96 -166q-110 -98 -272 -152q-132 -45 -277 -44q-32 0 -64 2z" />
<glyph unicode="F" horiz-adv-x="1220" d="M33 219q0 -51 30 -92q48 -61 154 -96q68 -23 127 -23q23 0 33 2q48 7 98 35q35 20 45 25q107 52 193 123q154 128 299 323q63 82 139 178q14 4 47 4q29 0 45 -2q36 -4 96 -8q5 0 15.5 -1t15.5 -1q76 0 76 49q0 22 -13.5 33.5t-29.5 13.5t-45 2q-23 -2 -72 -2 q-37 0 -55 21q34 70 86 119q55 52 96 110q31 24 53 49q15 19 52 52q3 2 14 9.5t18 10.5q22 11 37 21q37 25 37 63v6q-13 16 -25 19q-2 0 -6 1t-6 1q-15 0 -37 -13q-4 -4 -16 -10q-90 -50 -203 -168q-52 -55 -166 -201q-35 -45 -41 -53q-18 -28 -37 -37q-52 -32 -143 -49 q-13 -3 -39.5 -8t-40.5 -8q-69 -14 -135 -58q-10 -6 -29.5 -19.5t-29.5 -18.5q-24 -18 -29 -21q-18 -9 -31 -25q-30 -30 -30 -61q0 -2 1 -6t1 -6q15 -6 30 -6q13 0 19 2q42 10 98 49q8 5 24.5 15.5t24.5 15.5q21 11 49 28q22 13 52 27q37 16 75 16q29 0 45 -4 q-80 -113 -151 -199q-103 -125 -215 -213q-81 -62 -131 -90q-91 -48 -152 -51h-12q-67 0 -129 31q-78 40 -86 90q-2 8 -2 25q0 59 41.5 101t107.5 48q17 -8 21 -51q4 -45 26 -47q70 17 70 69q0 19 -10 39q-18 32 -54 55t-73 23q-45 0 -84 -26q-82 -52 -119 -154 q-14 -38 -14 -76zM301 981q0 -19 2 -29q9 -56 84 -131q72 -76 119 -88q46 -12 96 -12q71 0 148 22q124 36 192 107q51 55 78 156q12 54 12 79q0 51 -26 80q-11 12 -35.5 23t-48.5 12h-9q-57 0 -67 -47q16 -24 55 -33q36 -8 45 -37q2 -4 2 -14q0 -28 -16 -65q-21 -56 -45 -84 q-57 -60 -158 -91q-71 -22 -135 -22q-31 0 -55 6q-51 13 -93 61q-47 54 -55 99q-2 8 -2 24q0 56 41 129q31 58 82 109q127 121 367 135q27 2 79 2q119 0 381 -24q173 -13 236 -13q111 0 225 19q8 2 28.5 6.5t33.5 7.5q33 5 69 21q73 27 73 76q0 5 -1 10q-17 30 -43 30 q-16 0 -37 -14q-104 -46 -227 -55q-43 -4 -131 -4q-147 0 -391 22q-89 6 -177 6q-63 0 -96 -2q-154 -10 -274 -55q-135 -54 -197 -125q-54 -62 -90 -141q-39 -83 -39 -156z" />
<glyph unicode="G" horiz-adv-x="1128" d="M43 203q0 -44 14 -76q23 -50 111 -90q76 -36 145 -39q14 -1 29 -1q129 0 272 64q120 53 232 138q96 70 167.5 149t147.5 189q24 35 51 69q39 50 50 68q38 56 38 110q0 17 -2 25q-3 0 -9 1t-9 1q-11 0 -27 -4q-37 -13 -77 -53q-26 -22 -37 -29q-91 -63 -103 -72 q-51 -39 -114 -67q-100 -49 -213 -49q-37 0 -78 6q-31 42 -31 80v8q6 86 72 168q10 15 28 38t23 31q192 21 331.5 53t239.5 95q49 31 95 69q57 44 81 70q42 45 66 103q19 46 19 85q0 10 -1 19q-10 90 -133 90q-17 0 -57 -4q-88 -12 -201 -86q-42 -26 -180 -129 q-39 -31 -80 -57q-54 -40 -86 -72q-25 -25 -37 -39q-7 -7 -20.5 -21.5t-20.5 -21.5q-50 -50 -82 -57q-8 -2 -24 -2q-37 0 -80 12q-60 12 -102 39q-80 52 -80 139q0 13 4 37q9 47 39 89.5t73 68.5q18 9 45 24q24 15 54 25q48 20 82 20q12 0 16 -2q5 -1 9 -3t7.5 -3.5t6.5 -4 t5 -4t4.5 -5.5t3.5 -5t3.5 -6l3 -6t2.5 -6l2 -6q16 -41 53 -47q23 39 23 70q0 45 -41 75q-27 21 -64 31q-30 8 -55 8h-10q-79 -3 -203 -84q-129 -88 -151 -166q-13 -47 -13 -82q0 -64 35 -129q46 -88 129 -127q9 -5 21 -8t19.5 -4.5t21.5 -3t20 -2.5q46 -7 82 -31 q-28 -43 -51 -92q-43 -84 -43 -162q0 -33 4 -47q11 -52 56.5 -88.5t107.5 -36.5q105 0 266 64q53 22 115 41q-46 -73 -123 -153.5t-170 -147.5q-218 -157 -415 -157q-13 0 -26 1q-55 3 -112 31q-67 33 -70 82q0 2 -1 7t-1 7q0 7 2 14.5t3.5 12t6 11.5t6 9t8.5 10l7 7 q25 25 25 51q0 3 -1 6.5t-2 8.5t-2 9q-20 4 -30 4q-67 0 -97 -65q-18 -41 -18 -90zM838 979q30 47 78 93t88.5 75.5t105.5 71.5q11 6 23.5 14.5t28 19.5t24.5 17q62 41 82 51q77 41 155 41q27 0 41 -2q-14 -115 -116 -197q-63 -51 -218 -114q-9 -3 -29.5 -11.5t-29.5 -12 t-30.5 -11.5t-31.5 -11t-32 -9.5t-32.5 -7.5t-34 -5.5t-35.5 -2.5t-37 1z" />
<glyph unicode="H" horiz-adv-x="1376" d="M27 176q0 -22 6 -43q68 -71 133 -86q27 -8 59 -8q97 0 191 78q107 87 202 223q81 114 146 192q63 79 154 101q37 8 81 24q79 33 177 52q-39 -80 -99 -146q-46 -51 -110 -133q-62 -79 -96 -161.5t-35 -192.5q43 -74 122 -74q42 0 89 18q92 36 198 121q10 8 39 29 q18 12 33 27q22 19 22 45q0 6 -4 22q-18 10 -41 10h-10q-41 -10 -90 -59q-26 -26 -92 -72q-26 -20 -51 -28q-34 -15 -62 -15q-27 0 -61 17q3 61 24 108q33 81 101 162q38 53 53 78q46 40 119 151q11 19 55 78q65 82 160 105q92 19 182 78q51 34 80 49q18 11 81 49t88 54 t67 47.5t75 62.5q16 43 41 71q34 43 49 64q45 58 45 135q0 25 -2 39q-37 40 -75 43h-11q-69 0 -149 -66q-46 -37 -172 -147q-129 -117 -178 -164q-129 -120 -189 -196q-41 -49 -81.5 -71.5t-90.5 -33.5q-47 -10 -162 -49q-38 -14 -88 -14q77 123 224 270q124 127 278 254 q31 27 66 47q37 23 75 61q37 32 37 60q0 30 -53 41q-41 -18 -84 -39q-72 -33 -92 -39q-102 -37 -180 -37q-5 0 -16 1t-17 1q-28 2 -60.5 8t-50 10.5t-57.5 15.5t-49 13q-114 29 -172 29q-27 0 -41 -2q-83 -9 -148 -68q-60 -54 -90 -133q-18 -47 -18 -86q0 -74 63 -123 q58 -43 137 -43q41 0 68 8q52 13 84 55q31 40 31 101q0 6 -15 6q-7 0 -15 -2t-13.5 -4.5t-15 -8t-13.5 -8.5t-15 -10.5t-14 -9.5q-59 -41 -98 -41q-14 0 -22 2q-70 14 -70 72q0 31 18 66q24 44 64 80.5t76 43.5q40 9 75 9q68 0 193 -41q51 -19 72 -26t62.5 -16.5t74.5 -9.5 q10 0 45 5q-215 -226 -318 -353q-30 -39 -47 -63q-58 -82 -98 -125q-45 -45 -121 -66q-20 -6 -72 -24q-186 -71 -290 -129q-131 -76 -226 -180q-2 -3 -13 -16t-14 -17l-12 -16t-12 -18t-9 -17t-8.5 -19.5t-4.5 -20t-2 -22.5zM125 182q67 131 209 221q107 67 295 136 q12 -6 12 -15q0 -18 -20 -41q-3 -4 -9 -10.5t-8 -9.5q-101 -146 -182 -227q-68 -72 -139 -93q-30 -10 -58 -10q-59 0 -100 49zM1522 940q0 21 30 55q8 10 18.5 20.5t26.5 23.5t19 16q30 30 63 53q32 22 64 51q94 82 139 123q68 62 135 117h15q8 0 14 2v-9q0 -57 -33 -108 q-73 -108 -168 -166q-87 -53 -219 -123q-63 -34 -102 -63q0 1 -1 4t-1 4z" />
<glyph unicode="I" horiz-adv-x="1173" d="M47 233q0 -27 14 -55q17 -32 66 -78q20 -23 33 -47q99 -51 209 -51q50 0 118 14q119 26 281 123q106 66 184 145.5t166 194.5q97 124 129 162q69 82 123 158q30 43 57 90q14 28 56 84q15 21 41 37q26 18 39 37q72 85 114 132t106 106t130 101q48 29 69 41q38 21 64 60 q-18 45 -53 45q-17 0 -37 -10q-158 -65 -518 -148q-72 -18 -131 -31q-51 -11 -146 -38q-188 -60 -272 -115q-125 -83 -133 -180v-17q0 -92 78 -123q27 -12 63 -12q42 0 90 23q68 33 68 104q0 15 -2 23q-4 2 -15 2q-14 0 -32 -11q-45 -28 -52 -32q-34 -23 -55 -23 q-29 0 -53 31q22 100 127 162q18 11 37 20t45 18t38.5 13.5t47 15.5t41.5 13q202 62 481 110q-53 -85 -127 -168q-139 -153 -268 -344q-21 -29 -64 -88.5t-65 -89.5q-58 -75 -93.5 -119.5t-89 -104t-102.5 -102.5q-104 -89 -184 -139q-115 -71 -207 -84q-35 -6 -68 -6 q-80 0 -149 29q-109 47 -109 131q0 36 41 84q46 53 82 53q11 0 21 -5t15 -9t14.5 -14.5t11.5 -12.5q21 -25 38 -25q12 0 27 6q6 21 6 43q0 37 -20 60q-40 49 -101 49q-34 0 -69 -18q-85 -47 -135 -146q-21 -43 -21 -74z" />
<glyph unicode="J" horiz-adv-x="1267" d="M41 -176q0 -27 8 -51q14 -44 115 -72q62 -16 121 -16q39 0 55 4q37 7 94 47q18 14 47.5 37.5t34.5 27.5q47 41 94 103q40 50 99 116q35 40 96 119q51 66 104 92q25 11 58 21q58 14 112 47q58 35 103 49q35 12 53 23q55 29 55 88v6q-15 6 -33 6q-45 0 -112 -45 q-6 -3 -26 -15.5t-28.5 -17.5t-24 -12.5t-28.5 -10.5t-26 -3q-3 0 -8.5 1t-8.5 1q203 345 426 610q218 259 396 385q42 31 88 49q44 14 80 53q-10 45 -39 56q-6 2 -17 2q-14 0 -26 -4q-137 -50 -508 -129q-16 -3 -68.5 -14t-81.5 -17t-79.5 -18t-63.5 -15q-155 -40 -215 -74 q-58 -38 -111 -104q-60 -74 -63 -123q-2 -12 -2 -35q0 -43 14 -71q19 -47 48 -66.5t79 -19.5q46 0 90 18q86 35 86 104q0 15 -2 23q-20 -2 -63 -21q-44 -21 -70 -28q-28 -8 -43 -8q-42 0 -55 51q-2 6 -2 16q0 48 47 98q51 61 102 87q60 38 160 63q44 12 100 24t89.5 18 t106.5 19.5t91 16.5q89 15 158 37q-350 -364 -551 -658q-8 -14 -26 -38.5t-21 -28.5q-44 -61 -93 -146q-48 -84 -92 -139q-56 -70 -153 -88q-12 -3 -115 -29q-227 -68 -381 -180q-92 -64 -127 -104q-47 -53 -47 -117zM139 -199q3 85 78 150q40 34 141 88q63 33 104.5 52.5 t107.5 40t126 24.5q-10 -30 -28 -54q-37 -48 -101 -102l-55 -55q-3 -3 -20.5 -22.5t-22.5 -25t-19.5 -21.5t-23 -23.5t-21 -19t-24 -19.5t-23.5 -15q-52 -30 -102 -30q-57 0 -117 32z" />
<glyph unicode="K" horiz-adv-x="1646" d="M29 242q0 -15 4 -43q14 -72 69 -121q71 -63 144 -66h12q43 0 113 19q60 18 102 41q45 23 92 61q78 63 180 168q99 102 160 170q111 123 180 205q52 63 121 63q35 0 72 -16q59 -30 59 -98q0 -25 -6 -43q-29 -81 -98 -150q-118 -118 -158 -203q-16 -33 -16 -71 q0 -64 53 -107q50 -41 113 -41q28 0 61 10q79 21 154 93q58 55 112 100q18 14 47 43q31 40 31 61q0 7 -4 19q-16 8 -37 8q-8 0 -24 -4q-44 -17 -103 -86q-28 -32 -53 -51q-93 -65 -127 -80q-34 -17 -61 -17q-42 0 -56 46q0 2 -1 6t-1 6q0 4 4 16q8 23 37 56q4 5 12 13.5 t11 12.5q25 32 39 60q15 30 30 51q28 34 70 84q30 33 53 80q21 51 21 92q0 48 -25 121q73 28 125 63q101 64 201 164q61 61 96 92q30 26 90 90q43 47 90 90q111 100 224 121q-19 72 -76 72q-22 0 -49 -10q-47 -19 -121 -84q-68 -58 -115 -107q-70 -74 -100 -100 q-65 -58 -109 -107q-45 -48 -117 -102q-128 -95 -264 -95q-17 0 -33 1q163 219 447 475q29 24 43 33q36 22 47 32q54 43 61 92q-13 19 -24 25q-6 4 -16 4q-9 0 -25 -8q-9 -9 -18 -12q-35 -21 -101 -47q-76 -34 -125 -41q-111 -15 -211 -15q-38 0 -112 4q-171 14 -271 45 q-50 15 -92 15q-23 0 -35 -2q-104 -14 -182 -80q-94 -80 -94 -172q0 -63 35 -135q34 -71 69 -90q47 -27 113 -27q27 0 41 2q95 10 137 49q13 11 33 43t31 62q10 30 10 49q0 34 -33 39q-26 1 -37.5 -13.5t-21.5 -45.5q0 -2 -0.5 -3.5t-1.5 -3.5q-8 -23 -14 -35.5t-21 -25 t-37 -13.5q-18 -12 -45 -12h-12q-12 2 -37 2q-23 0 -33 -2q-61 40 -76 94q-6 24 -6 47q0 78 78 138q62 45 147 45q41 0 88 -13q144 -41 304 -41q40 0 63 2q112 5 125 5q15 0 42 -1.5t40 -1.5q-126 -140 -219 -253q-117 -138 -252 -279q-129 -135 -246 -270 q-123 -138 -244 -242q-72 -64 -139 -104q-88 -52 -160 -52q-18 0 -26 2q-94 11 -115 95q-4 12 -4 39q0 58 31 112q47 81 118 84h6l74 -22q26 -15 47 -15q19 0 29 4q0 3 1 9.5t1 9.5q0 55 -41 84q-30 18 -84 22h-26q-37 0 -74 -12q-62 -22 -125 -111q-53 -80 -53 -159z" />
<glyph unicode="L" horiz-adv-x="1603" d="M33 170q0 -39 24 -70q45 -58 125 -82q77 -24 154 -24q6 0 18.5 1t18.5 1q127 7 196 47q54 31 109 31q21 0 67 -11q46 -15 97 -18q74 -4 112 -4q108 0 193 14q162 24 242 70q58 34 92 76q32 41 32 65q0 18 -8 29q-16 4 -24 4q-16 0 -31 -6q-33 -15 -96 -70 q-19 -16 -56 -35q-83 -41 -233 -51q-27 -2 -80 -2q-107 0 -188 17q51 63 125 118q78 58 143 123q17 17 57 64q87 103 142 153q34 32 55.5 42t52.5 10h17q24 0 34 2q63 12 125 34q19 7 58 22.5t59 22.5q188 74 274 136q127 90 175 223q8 18 28 84q10 38 10 69q0 19 -2 27 q-14 75 -90 82h-14q-66 0 -129 -37q-144 -77 -215 -143q-30 -27 -63 -59.5t-58 -57.5t-63 -65t-57 -60.5t-61.5 -66t-56.5 -60.5q-73 -73 -108 -80q-21 -6 -51 -6q-24 0 -82 8q-96 15 -146 33q-80 31 -141 74q-82 57 -90 114q-2 12 -2 35q0 58 22 113q15 41 60 104 q63 78 164 119q73 29 143 29q50 0 96 -15q18 -21 21 -47q1 -9 2 -27.5t2 -27.5q1 -21 4 -34t14 -25.5t29 -16.5q37 25 37 88q0 21 -2 31q-12 70 -43 115q-51 57 -162 57q-17 0 -53 -4q-86 -9 -201 -78q-109 -65 -160 -145q-37 -67 -55 -139q-20 -68 -20 -119q0 -15 4 -39 q10 -43 49 -92q31 -42 67 -70q50 -33 88 -47q84 -32 213 -59q54 -11 113 -27q-24 -42 -55 -76q-37 -41 -121 -110q-85 -70 -129 -125q-50 -60 -160 -123q-54 -33 -92 -33q-20 0 -43 10q-38 15 -111 62q-66 39 -168 49q-6 0 -19 1t-19 1q-110 0 -168 -47q-37 -27 -37 -76z M141 162q30 43 103 43q36 0 67 -8q47 -13 90 -39t64 -52q-62 -20 -146 -20q-28 0 -40 2q-125 11 -138 74zM1432 770q115 141 265 271.5t310 230.5q8 4 12 4q1 0 5 -1t6 -1q8 -4 14 -4q1 0 4 1t4 1q0 -219 -201 -346q-137 -89 -419 -156z" />
<glyph unicode="M" horiz-adv-x="1716" d="M33 119q0 -79 67 -105q24 -8 43 -8q76 0 172 62q88 60 183 165q16 17 44 47.5t40 43.5q41 42 82 88q63 73 75 86q53 59 168 178q56 56 166 170q295 309 539 506q0 -7 -4 -11q-1 -1 -3 -4t-3 -4q-9 -5 -9 -14v-6q-451 -434 -721 -871q-24 -40 -51 -84q-34 -55 -49 -88 q-43 -88 -43 -168q0 -22 2 -32q40 -27 72 -27q35 0 74 27q11 8 21.5 18t22.5 24t18 21.5t20 25.5t16 21q217 286 379 455q69 69 106 102q135 123 176 185q49 72 156 155q9 7 90 72q4 4 27.5 25t30.5 27.5t27.5 23t33 24.5t31 19t36.5 18q-96 -127 -299 -344q-14 -15 -61 -66 t-68 -73.5t-57 -63t-63.5 -73.5t-53.5 -66q-37 -49 -94 -117q-46 -55 -88 -118q-90 -139 -98 -304q41 -57 123 -57q39 0 82 12q104 27 192 93q68 52 103 96q36 45 36 90q0 16 -2 24q-32 -3 -53 -18q-40 -26 -82 -78q-22 -27 -94 -76q-22 -17 -59 -32q-55 -19 -97 -19 q-25 0 -55 6q2 100 61 201q35 59 111 154q109 146 307 350q221 221 314 328q14 18 61 69q41 48 59 74q61 84 80 174q-24 8 -53 8q-34 0 -68 -12q-24 -9 -106 -57q-79 -51 -207 -170q-146 -131 -203 -172q-48 -71 -94 -117q-68 -75 -217 -211q-107 -98 -248 -291 q-54 -76 -133 -184q-1 -1 -9.5 -11.5t-10.5 -13.5t-10 -12.5t-11.5 -13l-11.5 -11.5t-12.5 -11t-12.5 -9t-14 -8.5t-14 -5t-15 -3.5q66 180 201 379q89 132 258 326q194 216 277 299q11 11 35 35.5t38 38.5q40 37 74 80q66 87 66 172q0 15 -3 30q-24 4 -36 4q-63 0 -121 -36 q-47 -29 -125 -107q-184 -174 -232 -219q-191 -177 -485 -506q-126 -141 -264 -285q-110 -110 -168 -155q-42 -36 -45 -39q-25 -22 -49 -37q-49 -29 -90 -29q-11 0 -31 4q-2 8 -2 27q0 32 13.5 55t39.5 49q2 2 14 12.5t15 14t11 12.5t10.5 14.5t5.5 14.5t3 18q0 2 -1 7.5 t-1 7.5q-8 2 -24 2q-34 0 -66 -19q-85 -54 -104 -161q-4 -24 -4 -37z" />
<glyph unicode="N" horiz-adv-x="1386" d="M39 135q0 -25 6 -49q23 -73 94 -76h10q61 0 121 33q57 28 107 68q80 63 162 170q67 83 82 100q206 245 301 362q158 195 303 340q28 28 61 66q29 33 72 43q-48 -137 -123 -440q-69 -280 -119 -439q-1 -1 -29 -67q-15 -28 -32 -68q-31 -68 -31 -110q0 -19 2 -27 q8 -2 21 -2q16 0 28 6q34 16 55 68q8 19 19 37q155 267 281 442q136 184 198 287q138 237 369 415q21 15 45 33q35 22 51 29q53 22 92 22q15 0 23 -2q6 -15 6 -33q0 -27 -19 -61q-19 -35 -61 -72q-40 9 -49 9q-23 0 -39 -21q-2 -73 80 -86h5q60 0 114 74q56 76 59 160v9 q0 88 -59 130q-99 0 -166 -31q-34 -16 -123 -84q-319 -246 -426 -504q-61 -58 -123 -139q-18 -26 -23 -39q-20 -35 -24 -41q-28 -44 -66 -47q71 338 181 614q15 40 20 50q12 24 21 51q10 30 10 57q0 26 -8 47q-12 0 -24 -2.5t-21.5 -5t-22 -9t-19.5 -9.5t-20 -12.5 t-17.5 -12.5t-18.5 -15t-16 -14t-16.5 -15.5t-15.5 -14.5q-135 -119 -231 -238q-94 -116 -213 -248q-73 -82 -142 -166q-30 -37 -129.5 -157.5t-154.5 -188.5q-69 -87 -152 -151q-61 -46 -93 -56q-24 -8 -46 -8q-15 0 -23 2q-12 34 -12 64q0 69 66 121q16 13 32 18 q16 3 33 10q40 14 49 43q-19 47 -63 47q-33 -2 -82 -30q-59 -41 -96 -117q-31 -64 -31 -119z" />
<glyph unicode="O" horiz-adv-x="1140" d="M35 244q0 -117 71 -199q103 -53 207 -53q70 0 144 22q114 35 291 160q29 21 57 43.5t60 50.5t50 44.5t55.5 51.5t47.5 44q66 58 123 131q56 73 98 149q50 91 88 195q33 97 33 153q0 25 -6 43q-21 88 -125 103q-5 0 -14.5 1t-14.5 1q-76 0 -151 -35q-151 -70 -252 -186 q-42 -46 -67 -100t-25 -101q0 -21 2 -29q11 -47 43 -69q30 -20 68 -19h7q40 0 81.5 17.5t72.5 46.5q43 43 43 88q0 25 -14 47q-14 -2 -24 -6t-19.5 -12.5t-14 -13t-14.5 -19t-12 -17.5q-21 -29 -42.5 -42t-60.5 -9q-22 28 -22 57q0 11 2 17q11 65 94 135q72 60 133 104 q85 62 164 62q43 0 76 -33q0 -205 -131 -395q-94 -138 -279 -297q-137 -118 -215 -172q-150 -101 -244 -113q-40 -4 -63 -4q-60 0 -103 14q-79 23 -102 78q-16 43 -16 78q0 22 6 43q3 14 7.5 28.5t9 25.5t12.5 27.5t12 24.5t15 26.5t14.5 24t16.5 26t15 24.5q33 54 41 102 q70 89 111.5 140.5t106.5 127t127.5 136t125.5 110.5q164 126 262 176q135 71 209 95q98 32 195 32q33 0 49 -2q49 -39 49 -106q-2 -36 -35 -121q-8 -19 -16 -33q-11 -22 -16 -37q-5 -20 -5 -26q0 -24 21 -37q2 0 5 -1t5 -1q21 0 49 35q32 47 43 73q35 75 35 142 q0 61 -29 114q-60 93 -194 93q-25 0 -37 -2q-69 -7 -153 -40t-142 -65t-147 -86q-91 -56 -132 -82t-112 -79.5t-119 -102.5q-41 -45 -63 -80q-23 -35 -66 -86q-103 -115 -139 -164q-142 -190 -189 -330q-28 -82 -28 -157z" />
<glyph unicode="P" horiz-adv-x="1658" d="M37 211q0 -17 10 -47q23 -62 57 -107q34 -46 95 -63q77 -25 161 -25q26 0 80 4q136 17 301 131q138 93 250 199q63 61 205 227q17 21 51.5 61.5t52.5 61.5q48 53 99 121q179 221 258 304q94 99 178 161q91 -52 91 -172q0 -12 -1 -25q-9 -121 -94 -231q-39 -51 -87 -81 q-47 -29 -92 -28h-3q-31 0 -68 33q-20 17 -47 17q-19 0 -29 -4q-2 -8 -2 -23q0 -39 31 -70q39 -36 88 -39q10 -1 20 -1q64 -1 130 39q78 46 137 126q104 142 104 295q0 34 -6 64q-3 26 -16 49q-8 15 -58 82q-16 22 -24 47q16 22 45 35q30 10 57 22q34 13 53 29.5t23 48.5 q-21 21 -45 21q-8 0 -17 -3q-47 -11 -137 -73q-39 -27 -69 -27q-31 0 -90 27q-57 26 -127 45q-150 39 -310 39q-47 0 -133 -8q-246 -30 -379 -146q-72 -59 -129 -137q-65 -90 -65 -164q0 -17 2 -25q9 -47 50 -72.5t95 -25.5q19 0 29 2q62 8 102 50q35 37 36 93q0 8 -1 17 q-12 4 -18 4q-7 0 -13.5 -1.5t-13.5 -5t-11.5 -6t-13 -9.5t-11 -9t-12.5 -11.5t-11 -10.5q-39 -35 -68 -35q-24 0 -53 23q23 188 227 301q173 94 417 94h15q244 -3 406 -107q-104 -104 -211 -237q-171 -212 -205 -254q-64 -79 -250 -291q-137 -163 -274 -274 q-196 -154 -361 -177q-38 -6 -71 -6q-79 0 -142 29q-94 45 -94 139q0 25 18 58.5t48 60.5q48 45 106 45q22 0 43 -6q28 -10 43 -57q12 -49 45 -64q49 38 49 80q0 27 -16 53q-19 28 -52 48.5t-61 25.5q-10 2 -32 2q-99 0 -179 -64q-106 -85 -106 -192z" />
<glyph unicode="Q" horiz-adv-x="1134" d="M35 297q0 -19 4 -51q12 -77 63.5 -134.5t128.5 -84.5q55 -19 109 -19q116 0 225 78q22 -5 60 -39q33 -37 65 -43q21 -6 49 -6q22 0 76 8q71 9 131 33q52 19 105 63q53 46 53 86q0 2 -1 7.5t-1 7.5q-17 14 -37 14q-6 0 -10 -2q-40 -12 -103 -68q-29 -22 -55 -34 q-72 -25 -120 -25h-7q-77 0 -102 57q64 57 116 99q18 15 64 51t72 57q173 139 260 252q35 52 69 111q44 72 58 110q22 64 22 117q0 87 -49 152q-63 82 -174 82q-24 0 -64 -7t-90 -43.5t-94 -87.5q-92 -106 -92 -192v-15q6 -51 48 -76q38 -22 85 -22h12q54 3 94 35t44 88 q-13 8 -31 8q-22 0 -57 -22q-37 -25 -60 -25q-18 0 -31 8v11q0 38 21 84q47 104 160 157q35 15 69 15q35 0 64 -12.5t41 -32.5q16 -27 16 -70q0 -42 -20 -100q-37 -101 -91 -181q-28 -43 -45.5 -64t-44.5 -40q-40 -26 -141 -131q-43 -46 -86 -86q-101 -94 -186 -125 q-17 7 -31 18l-16 12t-19 15q-55 35 -88 37h-16q-41 0 -82 -13q-53 -16 -62 -67q12 -21 47 -21q3 0 72 11q12 2 35 2q60 0 68 -54q-39 -45 -97 -67q-47 -17 -96 -17q-65 0 -119 29q-43 24 -65.5 69t-22.5 97v12q5 91 58 203q24 56 36 94q240 339 652 594q36 21 110 68 q56 33 123 61q159 66 260 68q142 0 150 -125q1 -12 -2.5 -26t-6.5 -21t-12 -24.5t-10 -20.5q-20 -36 -20 -62q0 -21 8 -37q65 18 93 71q24 45 24 99q0 11 -1 23q-6 65 -38 121t-78 76q-18 6 -56 12q-40 4 -55 4h-12q-343 -80 -631 -277q-254 -174 -463 -432 q-116 -149 -162 -241q-67 -134 -67 -244z" />
<glyph unicode="R" horiz-adv-x="1712" d="M35 164q0 -72 49 -121q14 -14 45 -23q12 -4 33.5 -11.5t25.5 -8.5q93 -35 156 -35q44 0 80 10q93 23 215 105q69 46 201 149q120 96 221 213q165 190 192 220q45 50 228 278q95 116 182 193.5t186 115.5q62 -48 62 -137q0 -35 -10 -80q-13 -41 -27 -65.5t-43 -53.5 q-71 -72 -145 -118q-53 -37 -103 -37q-19 0 -29 2q-15 1 -39 4t-34 4q-4 0 -12.5 1t-12.5 1q-61 0 -92 -39q-2 -4 -2 -12q0 -16 11.5 -26t35.5 -23q7 -5 22.5 -15.5t22.5 -15.5q31 -28 31 -74q0 -25 -12 -55q-29 -73 -109 -166q-43 -50 -64 -82q-63 -87 -63 -139v-14 q11 -95 111 -95h20q82 8 170 64q54 37 86.5 74.5t42.5 87.5q-20 4 -27 4q-19 0 -34 -6q-48 -21 -101 -74q-22 -26 -47 -41q-36 -25 -65 -25q-23 0 -52 13q3 43 27 90q36 61 115 155q35 38 55 82q35 72 35 140q0 42 -10 81q86 19 168.5 65.5t144.5 113.5q119 129 119 288 q0 36 -2 52q-7 34 -27 71q-26 51 -33 76q7 12 22 20.5t26 11.5t34 9q20 5 32 10t22.5 17t11.5 30q-27 27 -58 27q-47 -2 -127 -47q-40 -21 -59 -23q-134 69 -233 97q-110 28 -203 28q-45 0 -92 -6q-104 -12 -228 -51q-126 -39 -219 -100q-125 -79 -194 -136 q-103 -82 -138 -135q-51 -73 -51 -143q0 -75 47 -111q78 -8 125 -8q92 0 137 33q41 36 60 88q10 27 10 47q0 30 -27 45q-4 2 -10 2q-16 0 -25 -12t-18 -35q-1 -2 -3.5 -9t-3.5 -9t-4 -8.5t-4.5 -9.5t-5 -8.5t-6 -8.5t-6 -8t-7 -7.5t-8 -6t-9.5 -5.5q-32 -14 -72 -14 q-42 0 -78 20v15q0 70 70 143q51 53 158 129q98 70 181.5 117t170.5 69q135 33 254 33q26 0 76 -4q170 -16 254 -100q-51 -56 -136 -119q-73 -52 -149 -131q-39 -43 -98 -133q-7 -10 -24 -35.5t-26 -39.5t-24 -34t-29 -35q-18 -22 -54.5 -65t-55.5 -64q-74 -86 -109 -129 q-107 -131 -247 -243t-287 -183q-84 -43 -199 -43q-123 0 -158 72q-10 18 -10 49q0 60 35 113q48 80 119 80q12 0 18 -2q33 -8 47 -50q5 -15 9 -23t14.5 -17t25.5 -13q37 37 37 74q0 39 -33 72q-50 47 -127 47q-32 0 -59 -8q-42 -19 -85 -67.5t-69 -107.5q-26 -60 -26 -112z " />
<glyph unicode="S" horiz-adv-x="1642" d="M39 219q0 -83 74 -147q76 -67 186 -78q46 -4 68 -4q76 0 161 20q102 26 215 94q148 86 228 158q90 80 182 187q28 32 88 96q34 39 45 53q62 74 92 104q47 47 115 60q13 3 70 18q34 10 133 47q142 52 248 148q104 94 180 151q86 65 100 164q2 12 2 35q0 84 -61 127 q-41 27 -101 27q-46 0 -92 -19q-83 -37 -153 -117q-7 -8 -60 -61q-25 -24 -52 -51.5t-46.5 -48.5t-49 -55.5t-43 -51t-46.5 -56.5t-43 -52q-23 -29 -76 -90q-49 -53 -70 -62q-31 -12 -69 -14q-36 -2 -88 -10q-79 -9 -107 -9q-126 0 -219 37q-72 26 -119 74t-59 115 q-2 10 -2 34q0 80 47 172q49 94 106 136q32 25 82 43q40 14 68 14q12 0 28 -4q5 -1 9.5 -3.5t8.5 -4.5t7.5 -5.5t5.5 -6t5 -7.5t4.5 -6.5t4 -7.5t3 -7.5t3.5 -8t3 -7.5q9 -25 26 -40.5t54 -20.5q8 24 8 51q0 49 -29 94q-41 56 -94 70q-21 8 -49 8q-50 0 -113 -24 q-78 -27 -135 -80q-65 -62 -113 -164q-47 -99 -47 -189v-8q3 -133 142 -245q125 -103 294 -113h19q17 0 45 4q10 2 30.5 6t30.5 6q35 6 68 6q28 0 55 -6q-29 -39 -63 -82q-55 -74 -66 -88q-76 -96 -143 -155q-77 -67 -178 -133q-113 -72 -193 -105q-123 -49 -239 -49h-13 q-153 3 -207 119q61 115 174 133q4 -1 7 -2.5t5.5 -3t4 -5t3 -5.5t2.5 -6l1.5 -6t1.5 -7.5t1 -7t0.5 -8t0.5 -7.5q2 -25 11 -38t36 -13q51 34 51 88q0 21 -4 31q-9 29 -32 51.5t-50 28.5q-6 2 -20 2q-46 0 -133 -37q-94 -41 -123 -70q-40 -43 -43 -88v-12zM1511 868 q76 106 177 224q135 158 210 223q51 40 117 59q33 10 62 10q45 0 69 -24v-12q0 -39 -14 -74q-27 -58 -104 -117q-12 -8 -33.5 -24.5t-32.5 -24.5q-96 -82 -199 -143q-132 -78 -252 -97z" />
<glyph unicode="T" horiz-adv-x="1234" d="M41 252q0 -89 59 -158q60 -71 144 -82q10 -2 39 -2q43 0 86 6q78 10 114 19q42 14 156 78q69 37 113 73q96 72 174 172q123 152 219 281q73 100 135 178q148 193 285 324q6 5 37 28q21 18 34 33q37 37 37 80q-15 10 -31 10q-9 0 -16.5 -3t-16.5 -9.5t-10 -7.5 q-119 -83 -239 -215q-198 -218 -385 -504q-82 -124 -180 -219q-109 -109 -245 -169.5t-319 -60.5q-15 14 -32 25q-25 15 -29 18q-35 23 -41 56q-2 6 -2 22q0 65 61 123q51 51 111 51q19 0 37 -6q7 -3 13.5 -7.5t9.5 -7t7 -9t5 -7.5t5 -10l3 -8q4 -11 8 -18.5t15.5 -16.5 t29.5 -16q35 38 35 74q0 35 -33 65q-30 25 -72 39q-37 12 -73 12h-10q-79 -8 -146 -75q-55 -55 -90 -123q-2 -12 -2 -33zM485 1024q0 -17 2 -25q13 -56 88 -98q60 -37 121 -37q17 0 25 2q73 11 119 92q32 60 32 135v17q-22 1 -39 -10.5t-25.5 -24t-21.5 -37.5 q-19 -39 -38 -62t-48 -28q-6 -2 -18 -2q-28 0 -59 17q-45 20 -54 57q-2 4 -2 14q0 46 45 105q33 45 82 88q68 56 178 100q108 43 197 55q65 7 115 7q83 0 229 -15q21 -2 73 -7.5t80.5 -8.5t70 -5.5t75.5 -2.5q8 0 25.5 1t25.5 1q114 9 248 32q5 1 24.5 4.5t32.5 4.5 q24 2 64 14q72 22 72 76q-21 30 -39 26q-18 -7 -37 -10q-110 -27 -219 -43q-101 -14 -213 -14q-90 0 -254 12q-77 6 -219 10h-30q-232 0 -364 -59q-65 -31 -134.5 -79t-110.5 -93q-39 -39 -70 -103q-29 -63 -29 -106z" />
<glyph unicode="U" horiz-adv-x="1277" d="M47 1065q5 -47 44 -90t91 -47h12q79 0 156 88q3 4 13.5 15.5t15.5 17.5q14 16 33 43q16 26 16 49q0 22 -16 35q-12 4 -17 4q-12 0 -18 -6q-21 -18 -45 -72q-13 -23 -31 -41q-31 -31 -80 -43q-16 -4 -26 -4q-40 0 -54 35q-2 4 -2 14q0 27 29 72q22 34 63 75q19 17 43 33 t39 24.5t42 22t34 17.5q84 45 180 82q116 38 183 38q4 0 12 -1t12 -1q102 -13 121 -114q2 -10 2 -31q0 -50 -31 -121q-31 -63 -96 -143q-59 -73 -110 -121q-150 -146 -250 -272q-103 -124 -144 -172q-90 -106 -121 -166q-32 -59 -32 -127q0 -40 12 -86q59 -27 102 -27h19 q89 8 168 90q40 44 73 68q115 89 205 145q-39 -67 -45 -151v-21q0 -77 41 -129q61 -41 129 -41q61 0 129 33q93 45 201 149q23 23 37 35q13 10 33 35q18 24 18 47q0 16 -8 27q-9 6 -21 6q-1 0 -4.5 -1t-5.5 -1q-26 -8 -55 -37q-8 -10 -25 -27q-38 -33 -74 -69 q-43 -43 -86 -68q-58 -35 -106 -35q-49 0 -96 33q-8 19 -8 43q0 64 59 166q41 72 135 190q101 131 135 173q110 139 279 301q66 64 135 149q35 41 61 86q21 36 58 86q4 5 10.5 11.5t15 14.5t13.5 13q20 17 37 41q28 40 28 72q0 8 -4 28q-38 0 -63 -14q-49 -25 -93 -90 q-6 -7 -18.5 -25t-19.5 -26q-45 -55 -76 -105q-38 -59 -80 -104q-83 -99 -182 -185q-93 -80 -185 -182q-106 -118 -189 -202.5t-177 -161.5q-57 -46 -95 -84q-64 -60 -98 -90q-7 -6 -47 -41q-32 -29 -57 -41q-45 -25 -76 -25q-24 0 -53 16q41 144 141 283q61 85 195 223 q199 209 301 336q91 109 120 168q31 64 31 123q0 54 -18 96q-52 129 -224 129h-10q-136 -3 -303 -84q-166 -81 -248 -139q-139 -102 -139 -207v-10z" />
<glyph unicode="V" horiz-adv-x="1144" d="M29 1161q0 -15 4 -39q10 -50 45 -80q34 -29 90 -28h4q63 0 123 67q45 52 45 109q0 12 -2 18q-36 0 -62 -26q-21 -21 -53 -49q-33 -33 -57 -33q-28 0 -53 35q3 89 84 157q69 58 168 68h22q70 0 188 -43q147 -51 228 -51q63 0 119 12q30 6 65 6q17 0 53 -4 q-60 -67 -149 -186q-123 -172 -266 -408q-5 -8 -53 -87.5t-74 -119.5q-5 -7 -32 -52.5t-38 -62.5t-33.5 -51.5t-41.5 -58.5t-38 -45q-20 -23 -47 -43q-30 -20 -49 -39q-59 -51 -61 -113q24 -18 49 -18h6q41 0 98 47q6 5 45 33q43 28 101 51q80 31 188 115q20 16 94 71 q63 46 103 86q60 54 170 181q68 77 82 94q59 64 141 160q63 71 147 155q167 170 316 268q5 2 28 19q42 24 52 29q79 41 125 45h14q55 0 63 -47q2 -4 2 -15q0 -27 -40 -59q-33 -25 -33 -45q0 -8 10 -25q21 -6 37 -6q54 0 84 51q28 48 28 123q0 23 -2 35q-62 65 -151 65 q-34 0 -88 -14q-112 -33 -236 -129q-174 -144 -334 -321q-39 -44 -94 -99q-56 -53 -92 -96q-27 -31 -84 -88q-43 -46 -80 -102q-35 -53 -76 -91q-194 -170 -403 -266q90 152 133 228q54 96 135 223q152 245 301 407q59 65 117 135q50 60 115 119q22 19 49 31q22 10 49 29 q55 35 62 96q-28 8 -41 8q-9 0 -25 -4q-49 -12 -119 -57q-36 -21 -61 -29q-97 -32 -201 -43q-57 -8 -127 -8q-55 0 -80 4q-43 6 -125 39q-86 35 -114 41q-36 8 -80 8q-73 0 -152 -27q-112 -41 -174 -106q-61 -67 -61 -154z" />
<glyph unicode="W" horiz-adv-x="1509" d="M37 1133q3 -57 63 -91q38 -24 88 -24q19 0 29 2q63 10 107 67q32 44 32 87q0 16 -6 34q-32 -3 -53 -30q-24 -27 -47 -50q-32 -32 -57 -32q-28 0 -58 30q30 90 87.5 153.5t133.5 86.5q38 12 72 12h14q58 -2 138 -32q33 -13 63 -21q92 -25 205 -25q52 0 104 3q35 2 105 2 q-51 -84 -101 -142q-46 -53 -110 -139q-90 -123 -199 -293q-97 -155 -201 -287q-45 -61 -102 -145q-50 -73 -108 -135q-21 -21 -35 -29q-26 -15 -37 -26q-35 -25 -35 -64q0 -12 2 -20q23 -23 45 -23h4q35 0 82 31q13 11 35 24q112 68 145 93q58 42 109 87.5t105 107t81.5 95 t89.5 111.5q250 314 482 493q0 -6 -4 -10t-7 -10q-88 -115 -174 -250q-72 -114 -168 -260q-118 -175 -276 -350q-40 -40 -51 -58q-21 -28 -21 -51q0 -8 4 -20q24 -20 45 -23q8 -2 25 -2q29 0 72 15q8 3 21 8t16 6q26 13 65 47q12 9 35 27.5t35 27.5q3 2 67 58q65 51 68 53 q71 52 147 102q157 99 226 221q53 84 88 130q85 111 96 126q40 55 96 125q146 181 209 246q127 130 242 176q11 4 37 8q6 0 36 5q44 7 54 51q-15 28 -37 37q-16 8 -39 8q-25 0 -49 -12q-7 -3 -21.5 -9.5t-21.5 -9.5q-58 -27 -105 -57q-81 -56 -157 -142q-35 -41 -74 -83 q-100 -115 -172 -213q-28 -39 -83.5 -112t-80.5 -106q-32 -42 -80 -118q-71 -115 -174 -172t-192 -134q-47 -41 -103 -61q50 87 60 107q44 80 135 198q16 20 71 94q81 109 136 203q59 106 141 197q46 52 98 98q51 46 103 94q40 37 106 90q22 17 31 21q27 13 35 20 q32 25 32 56q0 2 -1 6.5t-1 7.5q-25 14 -53 14q-45 -2 -106 -32q-29 -18 -45 -25q-145 -74 -269 -174q-153 -127 -366 -344q-135 -140 -244 -281q-21 -27 -61.5 -76t-45.5 -55q-66 -75 -121.5 -126t-115.5 -85q103 127 190 260q30 45 89.5 135.5t89.5 135.5 q113 166 202.5 283t190.5 216q25 25 55 43q39 23 59 39q68 47 78 121q-69 0 -168 -45q-73 -32 -84 -37q-83 -35 -254 -35h-17q-143 0 -226 48q-47 24 -97 30q-40 4 -61 4q-110 0 -190 -41q-94 -46 -166 -131q-28 -28 -50 -71q-26 -58 -26 -82v-6z" />
<glyph unicode="X" horiz-adv-x="1482" d="M47 113q0 -82 64 -113q47 -6 88 -6q77 0 151 22q181 53 355 199q64 54 145 107q-16 -47 -16 -103t20 -108q39 -99 123 -111q10 -2 31 -2q53 0 114 22q66 24 138 74t118 96q45 45 45 86q0 13 -2 19q-38 0 -63 -14q-43 -22 -105 -84q-23 -26 -55 -45q-35 -22 -59 -34.5 t-64 -22.5q-31 -8 -63 -8q-10 0 -19 1q-65 37 -65 121q0 37 12 78q24 83 94 205q56 99 80 131q58 81 100 100q39 20 168 55q131 32 174 51q13 5 60 24t69 28.5t59 26t65 32.5t51 33q27 24 49 51q21 27 45 51l24 24l26.5 26.5t23 24t25.5 28t21.5 26t22.5 29.5q68 98 76 211 q-29 40 -72 49q-16 4 -47 4q-56 0 -125 -27q-89 -39 -137 -79q-42 -37 -70 -56q-16 -13 -44.5 -36.5t-50.5 -41.5t-40 -34q-70 -59 -133 -121q-67 -64 -127 -92q39 115 39 225q0 22 -4 68q-19 141 -125 198q-73 37 -170 37q-28 0 -90 -8q-125 -22 -240 -90q-39 -25 -89 -74 t-91 -106q-96 -129 -96 -213v-17q6 -58 46 -91.5t101 -43.5q28 -4 47 -4q108 0 185 53q94 60 94 148q0 12 -4 36q-38 -25 -70 -55q-40 -37 -88 -65q-61 -35 -104 -35q-52 0 -99 41q3 57 21 110q33 93 98 162q36 36 63 56.5t74 43.5q108 52 242 62q11 1 21 1q128 0 172 -114 q18 -55 18 -108q0 -59 -27 -154q-41 -137 -102 -231q-20 -31 -41.5 -48.5t-35 -21.5t-36.5 -8q-51 -9 -112 -12q-32 -4 -54 -9q-152 -35 -272 -98q-101 -53 -223 -147q-37 -29 -146 -107q-71 -51 -125 -117q-51 -64 -57 -145v-16zM137 98q0 50 25 95q41 71 143 145 q17 12 48 35.5t34 25.5q164 132 264 183q164 85 359 96q-96 -172 -249 -316.5t-339 -228.5q-24 -10 -64 -27q-36 -16 -71 -24q-27 -6 -58 -6q-49 0 -92 22zM1321 854q123 147 317 311q224 187 387 246q2 0 8 1t9 1q26 0 43 -12q-79 -220 -285 -359q-183 -124 -479 -188z" />
<glyph unicode="Y" horiz-adv-x="1247" d="M-201 -496q0 -37 19 -73q46 -80 147 -80q13 0 41 4q41 2 121 53q54 31 111 80q50 40 116 109q115 117 234 253q56 62 102 111q67 23 143 62.5t116.5 65t119.5 77.5q1 0 13.5 8t19.5 12q19 11 31 21q24 24 24 51q0 12 -2 18q-14 11 -33 11h-10q-41 -9 -84 -45 q-6 -4 -19 -14.5t-20 -14.5q-111 -68 -176 -92q108 174 217 307q194 239 506 555q130 130 256 262q10 12 37 39q13 13 37 41q30 38 30 78q0 14 -2 22q-8 2 -24 2q-21 0 -29 -4q-42 -15 -86 -63q-12 -14 -35 -37q-216 -222 -460 -434q-80 -71 -156 -144q-74 -71 -164 -139 q-103 -77 -170 -135q-80 -66 -178 -119q-10 -7 -45 -22q-80 -37 -135 -37q-3 0 -9.5 1t-9.5 1q-23 3 -35 16t-12 29q0 20 8 33q14 34 66 102q27 36 31 41q62 81 69 90q34 44 123 146q7 8 30 34t36 41q40 44 71 70q34 25 74 72q106 127 135 245q8 31 8 70q0 112 -106 166 q-52 25 -150 39q-38 6 -73 6q-51 0 -72 -12q-119 -56 -199 -99q-126 -68 -198 -137q-74 -74 -107 -127q-47 -78 -47 -141q0 -21 2 -29q20 -103 131 -123q16 -4 49 -4q85 0 150 39q45 26 71 66q22 36 22 77q0 6 -1 13q-16 4 -25 4q-8 0 -20 -4q-25 -10 -66 -51 q-23 -23 -88 -49q-29 -13 -57 -13q-27 0 -45 10q-15 8 -25 25.5t-10 38.5q0 13 8 41q22 65 90 143q54 65 146 125q118 77 194 101q58 18 111 18q28 0 63 -6q93 -19 142 -74q28 -32 28 -76q0 -23 -10 -53q-25 -68 -84 -137q-10 -11 -26 -30t-21 -25q-94 -105 -98 -109 q-64 -68 -94 -102q-10 -14 -41 -45q-8 -9 -24.5 -27t-24.5 -27q-9 -9 -27 -28.5t-27 -28.5q-19 -19 -47 -55q-67 -94 -86 -123q-57 -88 -57 -133q0 -119 150 -119h10q115 3 225 65q19 10 40.5 23.5t35.5 23.5t39.5 30.5t33 27l37.5 32.5t33 29q62 56 107 89.5t90 50.5 q-78 -113 -152 -195q-86 -98 -154 -197q-31 -49 -41 -75q-36 -76 -118 -86q-36 -5 -72 -21q-6 -3 -63 -26t-67.5 -27.5t-59.5 -25t-65.5 -28.5t-57.5 -26.5t-62 -30t-53 -28.5t-57.5 -33t-49.5 -33q-104 -73 -135 -121q-43 -61 -43 -123zM-115 -530q26 97 97 165 q110 110 337 195q102 37 185 78h4q13 0 16 -10q-34 -51 -86 -103.5t-135 -128.5q-68 -61 -119 -112q-62 -62 -123 -89q-54 -24 -98 -24q-45 0 -78 29z" />
<glyph unicode="Z" horiz-adv-x="1630" d="M66 127q0 -33 22 -61q41 -54 111 -78q51 -19 96 -19q39 0 76 15q66 28 137 84q37 30 94 30h21q17 -1 139 -20q40 -9 74 -15q27 -5 135 -28q77 -15 114 -15h17q88 0 190 37q52 19 152 70q26 13 53 25q26 12 49 28q37 29 37 62q0 8 -4 24q-15 6 -31 6q-3 0 -8 -1t-8 -1 q-36 -9 -86 -49q-26 -19 -43 -26q-28 -16 -84 -41q-98 -45 -193 -45q-85 0 -190 24q-15 3 -46 9.5t-46 9.5q-28 4 -45 4t-45 4q-57 7 -78 37q116 110 246 247q117 126 243 246q50 -4 74 -4q80 0 158 19q119 30 139 122q-8 2 -25 2q-34 0 -112 -32q-64 -27 -105 -27 q-30 0 -53 10q10 19 21 36.5t27 36.5t25.5 31t31.5 34t30 29.5t35 33t33 31.5q39 39 53 57q62 69 117 113q51 39 100 39q15 0 21 -2q30 -5 34 -5t11.5 1.5t11.5 1.5q54 7 117.5 28t107.5 45q144 76 154 201q-51 43 -117 43q-40 0 -86 -16q-19 -7 -38.5 -16.5t-41.5 -23 t-33.5 -20.5t-37 -24.5t-29.5 -20.5q-57 -37 -90 -63q-43 -32 -74 -39q-10 -2 -37 -2q-37 0 -92 10q-70 11 -139 35q-87 27 -139 47q-73 25 -150 43q-123 26 -209 26q-74 0 -143 -14q-88 -15 -180 -90q-91 -75 -119 -162q-10 -33 -10 -61q0 -51 24 -94q19 -34 48 -58t61 -30 q35 -5 45 -5q79 0 153 50q42 28 67 65.5t25 73.5q-6 2 -16 2q-38 0 -104 -51q-31 -25 -66 -43q-30 -15 -57 -15q-31 0 -53.5 12.5t-28.5 36.5q-4 20 -4 31q0 62 51 133q31 42 66.5 67.5t95.5 43.5q70 20 159 20q39 0 113 -8q154 -20 262 -71q69 -35 121 -48q21 -6 43 -6h41 q41 -3 66 -28q-33 -60 -91 -111q-18 -17 -112 -111q-29 -29 -45 -55q-63 -86 -107 -123q-43 -37 -82 -37q-13 0 -34 7q-18 6 -39 6q-4 0 -11.5 -1t-11.5 -1q-85 -11 -143 -43q-77 -43 -88 -101q24 -16 53 -16q33 0 86 29q70 34 100 34q18 0 45 -10q-31 -44 -100 -125 q-52 -59 -121 -127q-3 -3 -19.5 -20.5t-29.5 -30.5q-47 -47 -74 -70q-101 -90 -137 -92q-2 0 -7 -1t-7 -1q-24 0 -105 29q-9 2 -33 9.5t-38 10.5q-27 6 -62 6q-52 0 -98 -14q-89 -26 -125 -82q-16 -26 -16 -53zM166 117q25 65 133 69h15q89 0 147 -32q-10 -36 -49 -60.5 t-88 -30.5q-24 -4 -39 -4q-89 0 -119 58zM1810 1315q69 77 242 133q3 -59 -82 -90q-63 -23 -160 -43z" />
<glyph unicode="a" horiz-adv-x="946" d="M6 166q0 -72 40 -111q38 -37 95 -37h6q67 0 152 62q33 23 47 32t40.5 21.5t49.5 16.5q0 -33 8 -52q11 -30 52 -63q5 -5 15 -14.5t15 -14.5q12 -2 35 -2q29 0 41 4q62 13 123 64q37 30 100 71q30 20 54 41q45 41 45 82q0 13 -6 31q-32 0 -52 -14q-35 -19 -88 -76 q-29 -29 -43 -39q-55 -47 -98 -64q-24 -8 -37 -8q-41 0 -68 37q37 70 94.5 148.5t98 124t114.5 126.5q15 17 23 25q12 16 31 31q11 11 31 35q24 31 24 61q0 15 -2 21q-15 6 -28 6h-9q-20 -6 -63 -41q-18 -14 -35 -17q-20 8 -35 37q-14 29 -35 39q-42 10 -71 10q-23 0 -33 -2 q-93 -16 -188 -84q-89 -63 -132 -80q-34 -12 -55 -30q-80 -61 -156 -160q-96 -127 -98 -195q0 -4 -1 -11.5t-1 -10.5zM113 160q0 77 47 151q52 85 151 166q51 41 158 101q98 55 178 81q6 3 12 3q25 0 56 -21q-9 -75 -39 -131q-60 -103 -174 -184q-75 -52 -168 -131 q-38 -30 -68 -48q-67 -36 -116 -36q-9 0 -33 4q-4 14 -4 45z" />
<glyph unicode="b" horiz-adv-x="790" d="M-53 96q0 -88 86 -135h22q43 0 72 10q65 19 139 82q24 24 56 49q23 20 118 101q66 53 119 100q33 -26 80 -35q8 -2 23 -2q37 0 53 31q2 6 2 16q0 25 -33 37q-1 0 -6 1.5t-6 2t-5.5 2t-5.5 2.5t-4.5 2.5t-5 3.5t-3.5 4.5t-3 5t-1.5 6t-0.5 7.5v4q10 33 37 72q40 50 49 63 q47 64 47 123q0 17 -2 27q-10 2 -31 2q-48 0 -88 -29q-83 -72 -94 -170q-6 -44 -24 -71q-36 -54 -95 -105q-31 -25 -114 -94q-10 -8 -37.5 -31.5t-40 -33.5t-38 -29t-43.5 -29t-42 -20.5t-47 -16.5q-39 36 -39 76q0 71 70 158q8 11 24.5 33.5t24.5 33.5q7 12 37.5 60.5 t42.5 66.5t36.5 52.5t46 57t44.5 40.5q33 26 65 41q18 10 70 41q196 125 276 170q102 57 185.5 126t185.5 173q24 28 51 55q35 35 64 74q64 84 64 128q0 5 -1 9v12q-5 16 -10 21q-21 29 -78 32q-1 0 -3.5 -0.5t-8 -1.5t-10.5 -2q-9 -3 -37.5 -11t-38.5 -11l-11 -4h3 q-45 -19 -93 -64q-80 -69 -88 -76q-467 -388 -794 -833q-93 -125 -125 -178q-76 -121 -84 -205q-2 -8 -2 -27zM584 872q0 10 8 21q13 23 31 41q38 49 98 100q33 28 64.5 57t67 62t48.5 45q32 32 72 64q99 85 229 151h10q13 -3 13 -10q0 -12 -21 -41q-2 -2 -10 -19 q-73 -118 -262 -264q-155 -117 -338 -215q-10 0 -10 8z" />
<glyph unicode="c" horiz-adv-x="821" d="M0 156q0 -37 12 -72q32 -85 119 -109q24 -8 51 -8q42 0 117 27q34 13 55 22t52.5 28.5t62.5 47.5q102 92 154 125q26 16 57 43q35 32 35 64q0 21 -10 36q-3 0 -9 1t-8 1q-8 0 -20 -4q-33 -14 -60 -49l-28 -28q-121 -104 -199 -150q-118 -70 -184 -70q-18 0 -39 7 q-58 22 -58 75q0 21 4 33q15 54 68 125q49 61 94 100q40 34 96 78q56 46 92 72.5t93 56.5t112 43q0 -16 -10 -33q-21 -26 -22 -28q-17 -17 -17 -35t13 -31h6q57 0 106 56q44 50 58 133q-26 32 -60 35q-12 2 -37 2q-49 0 -108 -23q-87 -35 -170 -94q-7 -5 -35 -26t-43 -32 q-180 -138 -256 -237q-34 -48 -51 -82q-31 -64 -33 -86v-14z" />
<glyph unicode="d" horiz-adv-x="1011" d="M6 119q9 -48 57 -84q47 -35 99 -35q47 0 86 20q48 23 143 101q28 26 62 39v-27q0 -160 115 -160h10q107 6 243 113q96 77 123 111q35 47 35 79q0 22 -10 37h-15q-23 0 -36 -8q-38 -24 -66 -78q-15 -24 -33 -39q-121 -108 -245 -108h-7q6 50 27 94q34 72 111 156 q46 53 59 71q29 35 108 150q93 147 230 287q62 63 127 133q14 18 61 69q34 34 62 76q62 93 73 176q-18 11 -32 11q-10 0 -19 -3q-50 -40 -101 -95t-86 -99t-85 -109q-3 -5 -5 -7t-5 -6t-5 -7q-63 -80 -94 -119t-87 -99.5t-107 -103.5q-45 62 -123 62q-21 0 -31 -2 q-71 -10 -182 -68q-137 -67 -180 -104q-89 -76 -177 -197q-100 -137 -100 -215v-12zM109 131q43 158 208 303q127 111 320 197q8 4 22 4q37 0 60 -23q-3 -54 -43 -94q-26 -26 -76 -80q-69 -72 -133 -145q-65 -74 -156 -137q-64 -43 -96 -50q-18 -6 -35 -6q-40 0 -71 31z" />
<glyph unicode="e" horiz-adv-x="751" d="M4 131q0 -89 68 -119q36 -16 94 -16q40 0 84 6q24 4 48 12t57 24.5t47 24t58 33t50 29.5q39 24 65 37q38 20 64 43q53 43 53 84q0 8 -4 24q-3 0 -9.5 1t-10.5 1q-16 0 -31 -6q-9 -3 -18.5 -8t-20 -12.5t-16.5 -12t-19.5 -16t-17.5 -14.5q-15 -15 -47 -35 q-152 -94 -222 -111q-46 -16 -86 -16h-9q-48 0 -79 31q0 3 -1 9t-1 9q0 43 33 103q36 62 80 94q207 28 356 114q75 43 133 113q66 79 74 164q-65 27 -108 27h-9q-101 -3 -194 -74q-16 -11 -46.5 -33.5t-45.5 -34.5q-164 -121 -219 -180q-54 -64 -95 -133q-52 -89 -55 -141 v-21zM324 457v2q2 13 32 28q12 6 19 13q25 21 53 41q37 27 127 84q53 31 57 34q16 0 31 3h29q-13 -31 -38.5 -58.5t-47.5 -43.5t-58 -38q-59 -38 -190 -82q-14 10 -14 17z" />
<glyph unicode="f" horiz-adv-x="712" d="M-391 -541q0 -75 110 -75q52 0 117 51q39 30 94 90q68 74 121 156q97 148 195 346q57 107 86 155q50 -12 104 -12q59 0 105 14q113 34 116 133q-18 7 -30 7q-28 0 -84 -33q-52 -29 -80 -29q-25 0 -45 10q-8 16 -8 37q0 13 2 19q6 37 37 104q9 23 12 53q96 49 219 133 q161 113 201 140q161 114 237 190q97 92 217 256q15 21 33 45q24 38 31 51q18 36 18 68q0 22 -8 41q-14 25 -49 29h-17q-31 0 -43 -2q-64 -9 -141 -58q-59 -40 -135 -104q-25 -22 -70 -63t-51 -46q-119 -113 -227 -254q-29 -38 -119 -151q-147 -183 -252 -268 q-11 -39 -33 -74q-29 -46 -94 -123q-19 -19 -51 -59q-213 -267 -377 -492q-4 -5 -9 -13t-13.5 -19.5t-14.5 -20.5q-34 -49 -47 -74q-57 -91 -57 -152v-6zM-283 -510q0 13 9 45q22 55 59 98q26 30 35 43q222 320 405 543q2 2 8 2q7 0 7 -6q0 -3 -7 -6q-24 -48 -83 -176 q-46 -101 -87 -176q-105 -198 -221 -306q-53 -49 -125 -71v10zM610 684q163 232 297 371q176 183 387 284h19q-54 -115 -127 -209q-148 -194 -363 -317q-108 -65 -213 -129z" />
<glyph unicode="g" horiz-adv-x="854" d="M-295 -455q0 -69 68 -96q27 -12 65 -12q85 0 142 51q45 45 79 74q77 69 158 143q86 78 145 145q44 52 68 84q37 47 74 74q40 30 149 82q16 6 45 19.5t33 15.5q27 12 115 63q27 17 45 35q37 37 37 78q0 17 -4 27q-6 2 -21 2q-21 0 -42.5 -10t-33.5 -19.5t-36 -30.5 q-23 -20 -34.5 -29.5t-33 -19.5t-41.5 -10q-11 0 -27 4q39 74 84 133q6 8 41.5 54t53.5 71q54 74 90 140t57 143q-21 18 -39 18h-4q-29 -2 -74 -47q-19 -16 -37 -22q-55 38 -139 38q-70 0 -123 -26q-67 -28 -162 -94q-96 -70 -172 -146q-87 -87 -131 -149q-51 -74 -51 -131 q0 -17 6 -35q11 -37 62 -58q39 -16 86 -16q53 3 108 31q86 44 195 131q48 38 80 51q-27 -39 -72 -123q-33 -61 -88 -104q-49 -38 -166 -84q-10 -4 -96 -41q-50 -20 -174 -94q-103 -61 -176 -117q-84 -68 -103 -152q-6 -21 -6 -41zM-203 -463q3 41 25 72q31 51 106 98 q45 27 60 37q127 87 248 141q4 2 8 2q9 0 12 -20q-56 -63 -100 -100q-62 -52 -109 -99q-25 -21 -49 -49q-28 -32 -53 -51q-47 -37 -101 -37q-23 0 -47 6zM152 195q12 72 67 143q29 38 119 123q98 82 186 131q110 61 199 61h8v-10q0 -38 -20 -80q-44 -77 -131 -145 q-104 -84 -146 -123q-46 -39 -82 -59q-80 -48 -149 -48q-23 0 -51 7z" />
<glyph unicode="h" horiz-adv-x="905" d="M-139 123q0 -39 39 -66q37 10 59 29q30 26 76 104q16 28 35 54q178 221 370 319q121 66 213 66q19 0 29 -2q-87 -151 -188 -267q-26 -31 -52 -53q-15 -13 -67 -65q-72 -83 -72 -133q0 -2 1 -7.5t1 -7.5q8 -35 66 -63q53 -29 102 -29q32 0 80 23q78 41 162 112 q79 69 108 90q23 13 47 37q31 28 31 60q0 21 -10 36h-10q-26 0 -50 -12q-43 -21 -106 -88q-35 -35 -53 -49q-42 -36 -51 -45q-33 -29 -64 -43q-44 -23 -72 -23q-33 0 -63 27q46 75 98 135q74 86 109 131q8 9 55 64q41 47 55 69q43 64 43 129q0 25 -6 52q-35 25 -82 28 q-88 0 -180 -37q-53 -22 -76 -28q39 42 96.5 87t95 70t113.5 74q71 47 109.5 74t93.5 73t92 91q122 147 129 295q-50 34 -112 34q-33 0 -66 -10q-78 -22 -149 -82q-62 -50 -127 -124.5t-148 -180.5q-132 -168 -508 -661q-19 -26 -65 -76q-40 -40 -68 -82q-14 -24 -30 -43 q-18 -24 -27 -51q-6 -18 -6 -35zM578 915q15 22 47 68t47 68q46 67 102 129q121 131 268 192q2 -6 2 -18q0 -58 -57 -129q-63 -85 -186 -172q-107 -74 -223 -138z" />
<glyph unicode="i" horiz-adv-x="559" d="M8 123q0 -55 27 -82q36 -39 88 -39q41 0 104 29q65 29 172 114q63 51 86 82q27 39 27 60q0 15 -8 26h-12q-34 0 -58 -12q-56 -30 -119 -100q-24 -26 -59 -51q-50 -33 -90 -33q-25 0 -55 12q16 56 51 94q101 118 133 176q41 71 59 95q10 14 37 41q29 29 41 43q35 40 35 77 q0 17 -2 25h-4q-7 0 -19 8q-8 4 -12 4q-2 0 -14 -4q-89 -89 -226 -266q-91 -119 -112 -146q-55 -70 -66 -120q-4 -20 -4 -33zM582 961q0 -29 24 -64q20 -4 29 -4q36 0 61 25t25 59q0 12 -2 20q-12 45 -55 45q-29 0 -46 -14q-36 -25 -36 -67z" />
<glyph unicode="j" horiz-adv-x="718" d="M-483 -410q0 -29 32 -77q27 -45 60 -60q21 -8 47 -8t47 8q74 26 147 113q6 9 52 61q135 156 241 293q38 57 56 88q23 43 51.5 67.5t71.5 45.5q15 6 39 18t32 15q52 29 137 82q37 22 72 38q17 8 72 41q37 26 55 55q15 23 15 54q0 7 -1 14q-4 0 -11 1t-11 1q-57 0 -135 -55 q-6 -4 -28.5 -19.5t-32 -21.5t-28 -16.5t-34.5 -16t-33 -8.5q20 50 57 103q40 57 68 100q66 105 66 205q0 5 -1.5 15t-1.5 15h-49q-9 -3 -12 -12q-1 -3 -4 -9t-4 -9q-35 -94 -117 -226q-71 -114 -149 -215q-39 -50 -54 -75q-24 -43 -53 -66q-42 -35 -141 -84 q-117 -57 -152 -82q-51 -38 -139 -96q-70 -47 -123 -96q-42 -42 -70 -88q-34 -56 -34 -93zM-383 -428q22 68 64 113q60 66 200 155q55 34 103 76q10 0 16 2h14q-33 -29 -123 -168q-81 -128 -137 -166q-33 -21 -63 -28q-20 -5 -25 -5q-25 0 -49 21zM743 991q0 -21 9 -39 q18 -6 36 -6q42 0 78 29q31 28 31 65q0 25 -10 45q-25 5 -31 5q-48 0 -80 -29q-33 -30 -33 -70z" />
<glyph unicode="k" horiz-adv-x="888" d="M-201 51q0 -24 11 -43h14q22 0 35 8q30 19 55 74q9 22 23 39q27 37 61 64q28 22 63 57q41 43 119 129q57 63 144 104q0 -3 -1 -8t-1 -8q0 -30 30 -49q1 -1 8 -6t9 -7t7.5 -7t8.5 -8.5t6 -10t4 -12.5q-39 -36 -67 -93.5t-29 -111.5v-7q0 -57 30 -93q32 -38 103 -39 q35 0 78 16q67 26 143 88q51 40 64 49q82 57 98 72q23 23 23 43t-17 37h-14q-21 0 -39 -6q-45 -18 -102 -68q-28 -24 -50 -41q-17 -11 -51 -37q-62 -51 -112 -51q-31 0 -62 25q3 39 27 79q7 11 22.5 34t22.5 34q37 61 37 109q0 26 -8 53q30 24 65 39q11 5 76 39 q100 55 129 96q22 31 22 67q0 37 -22 80q-16 13 -33 13q-6 0 -19 -3.5t-14 -3.5q-21 -6 -37 -6q-15 0 -26 8q28 25 81 77t64 63q43 42 256 233q47 41 94 105q101 131 101 268q-43 43 -74 43q-12 0 -27 -6q-120 -51 -237 -162q-89 -82 -217 -225q-16 -17 -49.5 -53.5 t-51.5 -55.5q-69 -72 -102 -112q-79 -88 -104 -113q-53 -52 -99 -111q-29 -36 -43 -63q-38 -69 -96 -121q-29 -26 -53 -57q-40 -54 -76 -121q-30 -56 -76 -119q-35 -45 -47 -57q-16 -18 -47 -62q-31 -50 -31 -88zM352 504q46 55 113 91t170 75q12 -3 12 -13q0 -7 -10 -14 q-24 -20 -39 -25q-78 -43 -119 -59q-54 -21 -127 -55zM446 764q18 40 60 100q68 91 162 185q57 57 86 88q4 4 37 40t40.5 43t37 38t41 41t38.5 35.5t44.5 38t43 31t49 32.5t48.5 26q-3 -32 -19 -61q-20 -42 -82 -96q-16 -14 -45 -43q-149 -157 -273 -273.5t-259 -214.5h-2 q-7 0 -7 -10z" />
<glyph unicode="l" horiz-adv-x="512" d="M-49 94q0 -13 4 -33q20 -73 106 -73h9q69 3 172 57q80 42 118 76q48 45 82 92q33 48 33 91v7h-10q-26 0 -47 -12q-33 -19 -96 -86q-23 -25 -52 -45q-65 -49 -104 -66q-45 -18 -76 -18q-26 0 -45 8q69 205 160 291q21 21 53 37q35 19 55 35q110 90 262 204 q141 108 252 203q14 11 50 41t57 47q58 48 96 86q81 81 135 168q58 94 58 182q0 19 -2 29q-36 23 -78 23q-59 0 -131 -45q-24 -15 -52 -37t-45.5 -37t-44 -39.5t-32.5 -30.5q-24 -24 -45 -39q-24 -15 -41 -32q-277 -257 -588 -686q-86 -108 -139 -197q-74 -123 -74 -201z M446 696q284 392 658 637q5 0 8 -6q0 -8 2 -12q-61 -109 -133 -187q-128 -139 -348 -294q-108 -77 -187 -138z" />
<glyph unicode="m" horiz-adv-x="1054" d="M-229 70q0 -15 2 -21q24 -12 41 -12q12 0 16 2q39 12 80 74q8 14 33 43q34 44 77 86q95 92 183 190q54 63 106 105q119 95 253 95q13 0 26 -1q-48 -91 -96 -146q-39 -45 -113 -135q-9 -11 -27.5 -33t-27.5 -34q-43 -54 -56 -74q-57 -88 -57 -160q16 -8 35 -8q10 0 16 2 q40 10 80 57q10 14 31 35q59 59 71 72q66 69 154 127q82 54 164 133q43 39 80 65q96 68 186 68q-8 -24 -30.5 -56t-41.5 -54t-55 -62q-111 -119 -149 -197q-29 -56 -29 -106q0 -55 33 -105q46 -14 94 -14q42 0 100 14q72 20 162 80q73 54 94 80q45 52 45 94v5q-20 14 -41 14 q-8 0 -12 -2q-39 -11 -94 -70q-16 -18 -45 -39q-65 -47 -111 -63q-43 -15 -69 -15q-31 0 -56 11q6 66 33 112q36 65 137 158q26 23 72 76q74 91 74 213q-32 16 -41 41q-90 0 -154 -27q-98 -38 -225 -137q-52 -42 -98 -62q15 30 30 50q24 38 31 51q25 48 25 76q0 10 -9 41 q-43 26 -108 26q-44 0 -90 -12q-71 -19 -178 -76q-6 9 -9 25q-1 6 -4 14.5t-4 11.5q-11 23 -35 23q-8 0 -12 -2q-70 -70 -131 -156q-89 -119 -127 -168q-68 -85 -129 -168q-10 -12 -35 -37q-34 -40 -35 -41q-30 -38 -30 -77z" />
<glyph unicode="n" horiz-adv-x="921" d="M-96 45q0 -18 6 -33q15 -6 29 -6q10 0 22 4q46 21 78 74q6 8 15.5 23.5t11.5 17.5q115 156 194 244q124 138 221 200q73 47 99 58q37 16 71 16q26 0 45 -8q2 -10 2 -31q0 -23 -4 -35q-15 -50 -69 -108q-35 -40 -41 -47q-34 -40 -72 -78q-38 -41 -63 -84q-50 -78 -50 -160 q0 -22 7 -57q65 -27 108 -27h6q91 3 180 74q84 67 127 92q33 18 50 33q47 35 47 74v12q-20 14 -43 14q-11 0 -15 -2q-40 -9 -96 -65q-19 -22 -43 -39q-48 -36 -72 -52t-68 -32q-34 -12 -65 -12q-10 0 -20 1q0 36 12 70q20 54 80 121q7 8 24 28t27 31q17 22 51 56 q24 24 52 59q59 73 59 127q0 40 -23 84q-35 63 -102 63q-17 0 -25 -2q-62 -12 -151 -65q-46 -24 -76 -31v29q0 18 -2 26q-4 25 -29 25q-28 -6 -51 -25q-35 -35 -59 -98q-11 -24 -25 -49q-17 -27 -34.5 -53.5t-38 -55t-34.5 -48t-38.5 -51t-35.5 -46t-39.5 -51t-37.5 -47.5 q-5 -6 -17 -19t-18 -20q-22 -22 -37 -43q-30 -42 -30 -76z" />
<glyph unicode="o" horiz-adv-x="845" d="M51 182q0 -35 8 -59q18 -65 66 -107q19 -1 38 -1q160 0 288 100q23 19 45.5 40t47.5 49t38.5 43.5t43 52t36.5 44.5q36 -25 88 -25q36 0 73 13q42 12 66 38q19 20 19 47q0 6 -1 13q-14 19 -37 19q-12 0 -55 -17q-45 -18 -57 -18q-22 0 -39 20q5 24 26 80q22 59 27 82 q6 27 6 53q0 58 -37 103q-53 16 -92 16q-46 0 -96 -20q-122 -46 -289 -220q-153 -163 -194 -256q-19 -52 -19 -90zM156 178v12q8 70 71 146q9 12 29 35t29 35q16 18 53 65q28 35 53 55q95 85 144 117q59 39 106 39q23 0 43 -10q6 -15 6 -29v-8q-10 -32 -39 -68 q-9 -9 -22 -35q-24 -60 -37 -108q-14 -55 -49 -102q-60 -80 -150 -136q-112 -69 -221 -80q-16 36 -16 72z" />
<glyph unicode="p" horiz-adv-x="993" d="M-393 -500q22 -9 31 -28q34 3 55 18q36 23 69 88q8 13 31 45q246 309 424 494q93 -66 207 -88q70 -17 133 -17q54 0 127 17q112 30 211 98q110 75 110 148q0 5 -1 10q-6 2 -19 2q-18 0 -33 -6q-29 -13 -88 -68q-19 -19 -47 -33q-102 -55 -222 -55h-13q18 18 80 72 q48 41 86 82q98 98 131 196q14 47 14 84q0 78 -47 156q-24 6 -47 6q-22 0 -43 -6q-66 -20 -148 -74q-46 -26 -78 -33q11 22 11 33q0 26 -31 57q-30 -15 -53 -41q-40 -42 -72 -112q-3 -7 -9 -19t-11 -21.5t-9 -17.5q-12 -19 -33 -59t-32 -59q-66 -118 -160 -199 q-42 -37 -82 -86q-38 -48 -147 -193q-51 -71 -150 -190l-43 -43l-45 -45q-49 -56 -57 -113zM293 188q68 148 187 254.5t288 192.5q8 -4 10 -6q4 -4 10 -4q7 -28 7 -50q0 -69 -50 -153q-59 -95 -137 -158q-107 -86 -231 -86q-36 0 -84 10z" />
<glyph unicode="q" horiz-adv-x="862" d="M-86 -555q0 -15 6 -27q16 -8 37 -8q16 0 31 6q51 18 98 86q29 38 39 49q70 76 149 146q128 111 330 264q96 75 160 129q30 24 37 29q19 14 37 35q28 32 28 61q0 15 -6 27q-12 6 -24 6q-3 0 -8 -1t-7 -1q-32 -9 -69 -43q-13 -13 -29 -25q-63 -55 -90 -80q-41 -42 -88 -82 q-99 -89 -201 -133q104 171 213 305q45 57 126.5 160.5t100.5 128.5q2 2 39 45q24 27 37 51q27 44 27 74q0 23 -8 39q-6 2 -17 2q-27 0 -45 -22q-24 -32 -45 -41q-18 21 -27.5 31t-25.5 23.5t-31 20.5q-34 17 -78 17q-34 0 -67 -8q-94 -20 -248 -160q-64 -58 -120.5 -122.5 t-88.5 -113.5q-45 -71 -45 -135q0 -48 29 -88q56 -82 196 -82q5 0 17 1t18 1q-78 -114 -145 -223q-74 -117 -150 -219q-12 -16 -31 -31q-7 -6 -18.5 -18.5t-13.5 -14.5q-29 -37 -29 -59zM139 156q5 43 31 92q40 79 129 168q4 4 18.5 19t19.5 20.5t19 19.5t21 20.5t20 18 t23 18.5t22.5 15.5t24.5 15.5q48 28 106 68q9 6 27 6q7 0 27 -4q39 -10 57 -31v-20q0 -74 -55 -146q-35 -47 -127 -125q-77 -104 -156 -155q-56 -37 -110 -37q-55 0 -97 37z" />
<glyph unicode="r" horiz-adv-x="903" d="M-61 39q0 -9 4 -25q16 -8 34 -8h11q37 9 71 43q11 11 31 27q126 105 246 213q119 107 258 184q9 -81 98 -92q10 -2 29 -2q71 0 127 35q63 37 63 88q0 12 -2 18q-12 6 -26 6q-20 0 -66 -24q-46 -23 -63 -23q-18 0 -31 8q0 10 1.5 19t5 18.5t6 15t9.5 16l9 13.5t11.5 15.5 t10.5 13.5q37 47 37 78q0 16 -6 31q-40 -3 -70 -15q-56 -23 -114 -71q-8 -6 -17 -13t-19.5 -14.5t-15.5 -11.5q-53 -38 -102 -78q-43 -38 -111 -76q13 32 41 64q8 9 25 27.5t25 27.5q59 66 61 143q-12 6 -23 17q-4 4 -16 4t-20 -2q-57 -85 -135 -183.5t-133.5 -163 t-145.5 -167.5q-10 -12 -35 -37q-15 -15 -35 -43q-28 -44 -28 -76z" />
<glyph unicode="s" horiz-adv-x="735" d="M-6 129q0 -43 2 -68q49 -43 137 -57q46 -8 68 -8q39 0 73 12q174 59 273 125q73 46 125 98q49 52 49 101v12q-8 2 -23 2q-36 0 -61 -15.5t-55 -47.5q-25 -27 -40 -42t-42 -31t-54 -20q13 27 37.5 80t30.5 66q32 66 45 164q2 14 2 41t-2 39q0 4 -1 12t-1 12q0 65 39 129 q24 43 39 74q31 68 31 104q0 24 -9 45h-28q-10 -2 -31 -2q-31 -37 -65 -73.5t-80 -79.5t-69 -64t-83 -73.5t-72 -63.5q-13 -13 -28 -25q-21 -17 -31 -30q-23 -31 -23 -49q0 -9 7 -27q6 -2 20 -2q38 0 74 29q20 16 71 67q34 29 74 76q34 39 82 55v-35q0 -122 -20 -206 q-23 -98 -88 -187q-6 -7 -28.5 -37.5t-33 -43.5t-28.5 -32.5t-33 -31.5q-34 -27 -70 -27q-43 0 -82 39q0 3 -1 9.5t-1 9.5t1 8.5t1 7.5q1 5 2 14.5t2 14.5v12q0 20 -16 31h-7q-61 0 -73 -52q-6 -16 -6 -59z" />
<glyph unicode="t" horiz-adv-x="528" d="M-12 96q54 -73 141 -73q23 0 35 2q91 14 188 100q57 46 90 96q21 35 21 60q0 23 -17 43q-44 -15 -77 -54q-37 -40 -74 -77q-68 -68 -129 -68q-30 0 -62 14q17 60 41 101q46 81 125 170q42 49 64 79q59 78 123 175q63 92 127 167q21 15 61 15q13 0 38 -1t36 -1q40 0 67 6 q33 6 33 47q0 25 -14 33q-23 14 -98 14h-11q-17 0 -37 8q2 26 29 62q19 27 19 57v10q-21 9 -37 9q-41 0 -74 -60q-4 -7 -19.5 -31t-23.5 -38q-39 -62 -116 -62h-7h-70q-83 0 -112 -45q3 -32 26 -39q21 -6 45 -6q31 0 66 6h14q22 0 37 -6q-12 -29 -25.5 -55.5t-32 -55 t-31 -48t-37 -50t-35 -43.5t-39.5 -48t-37 -44q-82 -99 -133.5 -182t-77.5 -187z" />
<glyph unicode="u" horiz-adv-x="878" d="M8 119q0 -13 4 -33q7 -30 38.5 -45.5t70.5 -15.5q41 0 65 12q57 28 131 94q30 23 50 29q-1 -7 -4 -35.5t-3 -44.5q0 -52 21 -78q34 -27 74 -27q68 0 155 56q12 7 37 23t39 24q86 55 113 82q37 37 37 69q0 13 -7 31h-14q-22 0 -37 -6q-42 -20 -88 -70q-24 -24 -45 -37 q-96 -65 -156 -65q-14 0 -20 2q3 48 16 80q24 63 76 129q6 7 16.5 20.5t16 20.5t12.5 17t11.5 19.5t7.5 18.5q15 36 22 45q22 30 62 74q13 13 35.5 38.5t29.5 33.5q75 89 84 174q-10 10 -29 10h-41q-68 -82 -141 -184q-84 -112 -155 -181q-44 -41 -93 -75q-47 -31 -92 -76 q-13 -13 -41 -45q-21 -25 -43 -43q-43 -37 -88 -37q-16 0 -24 2q7 53 32.5 110t45 86t65.5 93q12 18 40.5 62t45.5 69q8 15 20 30q16 16 25 37q8 13 8 29q0 23 -28 43h-11q-12 0 -24 -6q-23 -16 -49 -66q-3 -8 -11 -21.5t-10 -17.5q-7 -12 -47 -69q-78 -111 -121 -176 q-84 -123 -84 -209z" />
<glyph unicode="v" horiz-adv-x="825" d="M4 127q0 -15 4 -47q54 -63 107 -72q24 -4 35 -4q80 0 169 76q47 40 93 78q24 21 49 49q66 78 98 106q33 29 66 29q8 0 32 -4q21 -6 37 -6h11q82 8 167 63q40 25 58 51q20 27 20 58q0 14 -2 22q-6 2 -18 2q-17 0 -36.5 -9t-30.5 -17.5t-34 -26.5q-54 -43 -94 -43 q-22 0 -43 8q9 38 35 74q31 39 49 72q27 52 27 80q0 34 -29 73q-105 -16 -150.5 -89.5t-50.5 -200.5q-47 -58 -74 -89.5t-71 -76t-86 -78.5q-64 -52 -111 -78q-40 -21 -71 -21q-27 0 -54 15q-4 24 -4 33q0 12 4 32q10 56 58 121q6 9 18.5 26.5t18.5 26.5q46 70 73 109 q34 49 80 102q23 23 37 33q21 15 39 33q33 33 33 61q0 9 -4 25q-3 10 -17 10h-8q-16 -4 -22 -4q-2 0 -6.5 1t-6.5 1q-17 -34 -71 -80q-7 -6 -21.5 -18.5t-21.5 -18.5q-53 -49 -62 -92q-11 -33 -26 -53q-21 -31 -66 -80q-46 -49 -68 -84q-59 -91 -59 -178z" />
<glyph unicode="w" horiz-adv-x="1290" d="M-43 131q0 -14 2 -20q10 -51 59 -88q53 -46 103 -46t86.5 21.5t75.5 62.5q5 5 18 19t19 20t18.5 18t21 18.5t21 14.5t25 13.5t26.5 9.5q0 -6 -1 -18t-1 -17q0 -100 49 -143h31q82 0 158 29q149 62 278 211l105 120q35 -53 118 -53h12q77 0 128 37q49 34 49 80q0 9 -4 29 q-3 0 -9.5 1t-9.5 1q-14 0 -28.5 -3.5t-22.5 -6.5t-24 -10t-21 -9q-36 -16 -53 -16q-21 0 -43 16v8q0 69 47 135q2 3 13 17.5t14 19t11 17.5t11.5 21.5t7.5 21.5t6 26q-34 17 -55 17q-13 0 -27 -7q-54 -25 -90 -125q-13 -37 -34 -69q-47 -68 -91 -119q-53 -65 -94 -106 q-78 -76 -153.5 -120.5t-169.5 -45.5q11 54 35.5 110.5t46.5 94t59 94.5q16 23 49 65q51 66 53 68q37 53 37 100q0 24 -8 43h-8q-29 0 -53 -18q-39 -30 -86 -115q-37 -66 -86 -113q-94 -84 -129 -112q-68 -53 -105 -92q-9 -9 -27.5 -29t-27.5 -29q-74 -70 -123 -88 q-15 -6 -31 -6q-47 0 -72 57q15 64 54 119q77 109 131 221q26 57 69 109q21 21 33 31q17 11 37 28q35 35 35 66q0 3 -1 8t-1 8q-17 7 -27 17q-6 6 -16 6q-5 0 -21 -4q-51 -39 -90 -83.5t-86 -111.5q-26 -33 -41 -65q-37 -74 -90 -150q-29 -44 -47 -78q-45 -81 -45 -133z" />
<glyph unicode="x" horiz-adv-x="1024" d="M-12 78q0 -31 12 -55q47 -33 100 -33q33 0 80 14q58 18 156 78q25 -31 59 -55q75 -56 170 -56q45 0 99 23q25 11 49 24q7 5 114 80q15 12 56 39q76 53 118 111q23 33 23 55q0 23 -20 37q-32 -2 -76 -27q-73 -47 -152 -123q-78 -72 -162 -106q-30 -10 -59 -10 q-36 0 -66.5 11.5t-37.5 29.5q-7 14 -7 28q0 43 50 107l24 30t23 29q102 129 193.5 217t199.5 150q4 2 10 2q7 0 14 -3t15.5 -8.5t11.5 -7.5q16 -12 25 -12q8 0 18 10q8 19 8 37q0 30 -24 51q-36 25 -70 25h-10q-25 0 -60 -14q-47 -25 -118 -80q-27 -21 -52 -27 q-5 15 -14 51q-7 27 -20 43q-42 17 -78 17q-28 0 -49 -8q-136 -55 -271 -164q-31 -28 -67 -51q-29 -17 -70 -50q-59 -52 -59 -98q0 -12 2 -18h18q35 0 56 8q52 18 122 80q27 24 54 45q10 7 45.5 33t51 36.5t46 28.5t58.5 28t59 17v-18q0 -25 -6 -49q-20 -60 -70 -117 q-24 -27 -45 -51q-33 -38 -76 -103q-37 -56 -74 -96q-94 -105 -223 -115q0 3 -1 8.5t-1 8.5t1 8.5t1 7.5q5 25 6 29q0 10 -1 15t-7.5 10t-19.5 8h-9q-38 0 -59 -54q-14 -32 -14 -61z" />
<glyph unicode="y" horiz-adv-x="851" d="M-301 -522q0 -32 12 -56q12 -26 46.5 -38.5t72.5 -12.5q17 0 41 4q64 16 123 64q21 19 47 37q105 76 139 106q59 50 119 121q13 16 72 84q84 100 106 160q23 64 170 137q106 56 117 63q23 15 59 27q32 11 62 31q49 30 49 78q0 15 -6 36q-9 3 -21 3q-49 0 -123 -58 q-28 -21 -40.5 -29.5t-36.5 -19t-45 -10.5q-3 0 -8.5 1t-8.5 1q38 66 94 135q70 86 101 133q2 4 51 66q36 47 49 69q43 65 43 133q0 21 -2 31q-35 0 -55 -14q-36 -22 -72 -84q-20 -33 -29 -43q-35 -41 -71 -80q-43 -43 -62 -90q-62 -33 -123 -94t-125 -113q-9 -7 -30 -24.5 t-33 -26.5q-40 -31 -74 -49q-56 -29 -92 -29q-32 0 -53 16q15 61 49.5 124t56.5 92t76 96q40 51 53 73q15 28 49 76q15 22 33 35q25 20 35 33q29 33 29 65q0 7 -4 27q-12 12 -37 12q-5 0 -14 -1t-13 -1q-58 -52 -92 -110q-59 -96 -164 -213q-41 -46 -82 -107 q-90 -131 -90 -256q49 -64 107 -70q10 -1 20 -1q90 0 211 81q55 40 104 64q-9 -43 -30 -66q-38 -44 -115 -73q-40 -18 -74 -35q-97 -49 -164 -105q-172 -137 -237 -170q-85 -46 -135 -127q-35 -56 -35 -108zM-203 -518q37 72 97 129q78 72 262 186q67 41 129 97q2 2 8 2 q8 0 12 -23q-90 -122 -168 -203q-112 -112 -223 -166q-17 -7 -29 -14q-24 -14 -28 -16q-12 -6 -25 -6q-21 0 -35 14z" />
<glyph unicode="z" horiz-adv-x="1024" d="M6 33q20 -23 45 -29q20 -4 35 -4q29 0 74 10q27 6 57 6q47 0 100 -6q36 -7 101 -14q78 -8 117 -8q43 0 83 6q47 7 105.5 27t93.5 40q64 33 123 95q69 69 72 131q-20 4 -27 4q-20 0 -35 -6q-38 -14 -108 -76q-24 -22 -60 -43q-106 -63 -254 -72q-18 -2 -59 -2 q-129 0 -213 51q53 37 295 201q141 96 297 193q4 3 55 28q35 19 55 35q56 40 56 103v6q-14 2 -41 2t-135 -15q-74 -12 -111 -12q-31 0 -61 6q-11 2 -21 6t-19.5 11t-14.5 10.5t-15.5 13.5t-13.5 12q-49 39 -86 39h-11q-4 -2 -12 -2q-2 -10 -2 -28q0 -36 14 -58 q42 -63 142 -92q80 -26 84 -27q-26 -48 -78 -73q-40 -21 -98 -58q-109 -71 -185 -131q-82 -68 -178 -129q-16 -11 -49 -26q-14 -6 -55 -29q-62 -41 -62 -96z" />
<glyph unicode="&#x2000;" horiz-adv-x="788" />
<glyph unicode="&#x2001;" horiz-adv-x="1577" />
<glyph unicode="&#x2002;" horiz-adv-x="788" />
<glyph unicode="&#x2003;" horiz-adv-x="1577" />
<glyph unicode="&#x2004;" horiz-adv-x="525" />
<glyph unicode="&#x2005;" horiz-adv-x="394" />
<glyph unicode="&#x2006;" horiz-adv-x="262" />
<glyph unicode="&#x2007;" horiz-adv-x="262" />
<glyph unicode="&#x2008;" horiz-adv-x="197" />
<glyph unicode="&#x2009;" horiz-adv-x="315" />
<glyph unicode="&#x200a;" horiz-adv-x="87" />
<glyph unicode="&#x202f;" horiz-adv-x="315" />
<glyph unicode="&#x205f;" horiz-adv-x="394" />
<glyph unicode="&#x25fc;" horiz-adv-x="768" d="M0 0v768h768v-768h-768z" />
</font>
</defs>
</svg>
